<?xml version="1.0" encoding="utf-8"?>
<!-- Uploaded to: SVG Repo, www.svgrepo.com, Generator: SVG Repo Mixer Tools -->
<svg width="800px" height="800px" viewBox="0 -75.47 398.039 398.039" xmlns="http://www.w3.org/2000/svg"><defs><style>.a{fill:#b3b3b3;}.b{fill:#ffffff;}.c{fill:#febe69;}.d{fill:#3d8dcc;}.e{fill:#85807f;}.f{fill:#211715;}.g{fill:#957f6e;}</style></defs><path class="a" d="M121.518,137.446c-2.63-3.35-12.64-11.49-16.02-14.12-1.11,1.48-8,9.248-9.314,10.835L94.66,136c.293,5.677.2,14.873.191,19.144l0,.509c2.822-1.1,4.988-1.947,6-2.327.977,1.853,2.326,4.762,3.811,8.05l1.4-7.625a15.548,15.548,0,0,1,2.078-5.647c.959-1.214,2.722-1.731,3.929-2.683,2.437-1.921,4.628-4.068,7-6.019a11.923,11.923,0,0,1,2.447-1.956"/><path class="b" d="M137.749,125.489c-.954,2.788-5.888,3.562-11.308,3.953-4.923.355-5.623,3.173-6.758,5.6,0,0-.046.1-.127.277-3.731-3.679-10.494-9.2-13.572-11.615l2.5-1.863c9.66-6.509,6.849-9.067,12.056-14.3,2.1-2.117,10.828-5.076,14.812-4.259l7.125,1.059a2.18,2.18,0,0,1,1.914-.913c1.223.07,2.6,1.51,3.091,3.2l.294-.143c.752-.361,4.151-.67,4.869,1.038,1.459,3.472-3.553,5.691-5.252,6.438l-.418.215c-.188.934-.4,1.849-.6,2.734-.405,1.8-2.451,3.7-4.622,2.269-.065.473-.14.948-.216,1.422a1.555,1.555,0,0,1-1.64,1.487l-1.376-.4a15.181,15.181,0,0,1-.766,3.793"/><path class="b" d="M357.065,98.943c-1.607,3.8-12.134,10.537-13.364,11.173-5.179,2.679-18.251,5.336-21.073,2.775a27.825,27.825,0,0,0,5.551-10.832l-.66-2.6a37.319,37.319,0,0,0-1.753-4.9,1.567,1.567,0,0,0-1.823-.979c-3.185.761-8.053.15-11.581-1.261a9,9,0,0,1-4.816-4.716,18.948,18.948,0,0,1-1.4-4.6,44.724,44.724,0,0,1-.755-6.817,7.216,7.216,0,0,0-1.547-3.106c-1.212-1.388-3.2-2.5-2.1-4.815a4.394,4.394,0,0,1,2.061-1.95c4.379-2.206,4.751-8.736,5.032-13.443a32.911,32.911,0,0,1,1.326-10.234,92.093,92.093,0,0,0,23.96,16.378,16.275,16.275,0,0,0,5.639,1.793l2.7.2a5.061,5.061,0,0,1,.916-.29,4.49,4.49,0,0,1,3.779.7c1.514,1.176,2.153,3.559,2,5.5Z"/><path class="a" d="M73.8,238.36a104.9,104.9,0,0,1-18.5-1.222,175.649,175.649,0,0,1-26.14-6.285,2.5,2.5,0,0,1-1.635-3.025c1.721-7.3,5.567-27.863,7.811-37.662h57.35l4.167,34.583-6.587,7.924A15.765,15.765,0,0,1,78.14,238.36Z"/><path class="c" d="M365.394,170.619c.673-3.192,1.041-6.433,1.438-9.187,1.786-12.359,5.9-26.036,2.556-38.377,0,0-.764-2.817-1.236-4.585-3.218-7.808-8.763-14.089-10.51-19.592l-.236-.742-.341.807c-1.607,3.8-12.134,10.537-13.364,11.173-5.342,2.763-19.08,5.5-21.314,2.513-4.12,4.959-8.361,13.983-10.76,21.466a1.735,1.735,0,0,0-.412.317,67.361,67.361,0,0,1-4.015,8.578,10.126,10.126,0,0,1-4.386,3.879,33.992,33.992,0,0,1-4.927,1.859l-1,.315,3.307,1.95c2.168,1.278,7.494,6.71,7.923,8.445l.16.652,1.239.094c1.239.134,2.429.257,3.589.374l.523,20.679,17,19.069h9.877c5.1,0,23.354-.4,28.315-.4l1.151-.079c.553-5.054-3.294-20.35-4.173-25.427A30.018,30.018,0,0,1,365.394,170.619Z"/><path class="b" d="M81.979,188.208c16.9-18.4,36.928-40.585,45.191-50.884a2.008,2.008,0,0,1,1.566-.755h143.3a2,2,0,0,1,1.558.745c12.833,16,54.095,60.709,67.88,75.348a1.628,1.628,0,0,1,.358.873c0,1.813,0,7.305,0,9.868a1.992,1.992,0,0,1-1.986,2.01l-278.911,0a1.993,1.993,0,0,1-1.994-2.013c.025-3.012.009-7.8.014-9.876a1.575,1.575,0,0,1,.338-.864C64.21,207.443,72.615,198.405,81.979,188.208Z"/><path class="a" d="M77,192.907c-2.136.819-4.338,1.618-6.626,2.4-14.6,5-30.855,6.871-36.771-12.56-3.265-10.723-4.031-30.836-4.586-42.833-.433-9.344-.661-14.625,1.128-24.4.035-.214.3-1.039.512-1.764,2.564-8.952,10.212-15.319,14.918-23.118.888-2.3,3.661-5.113,4.943-8.035-.661-.817,13.554,16.5,22.5,26.361,4.583,5.053,14.087,19.214,19.25,24.841l2.481,2.262c.5,5.648.118,14.256.1,19.08,0,0,0,.19.013.5,2.814-1.1,4.975-1.942,5.988-2.322,2.374,4.5,6.948,15.247,10.332,22.5C99.335,182.857,89.242,188.213,77,192.907Z"/><path class="b" d="M77.22,114.169c-1.611-2.119-3.059-3.945-4.2-5.2C65.707,100.9,54.88,87.871,51.526,83.819c.49-1.377,1.018-2.856,1.138-3.044,6.933,2.172,21.22,8.4,26.71,9.286q1.307-1.454,2.726-2.8c.583,1.659.973,2.777.973,2.777.312.892.657,2.027,1.017,3.3h1.446c2.724,5.465,3.365,9.736,4.8,14.906,1.381,7.595,3.183,16.776,4.418,28.261l-2.482-2.7C88.393,129.581,82.071,120.548,77.22,114.169Z"/><path class="b" d="M48.577,16.634c-2.55.636-4.208,1.673-7.169,5.341C37.746,26.511,37.085,31.936,36.821,33c-2.376,9.519.867,22.087,9.547,30.964,1.58,2.033,4.268,4.207,6.177,6.6a6.981,6.981,0,0,1,1.448,4.367,23.77,23.77,0,0,1-1.476,5.808c6.876,2.127,21.348,8.448,26.869,9.333,1.294-2.519,2.265-4.4,2.265-4.4a48.075,48.075,0,0,0,2.338-5.507A1.577,1.577,0,0,1,85.93,79.4c3.094,1.143,8.036,1.116,11.734.128a9.066,9.066,0,0,0,5.383-4.139A19.108,19.108,0,0,0,105,70.959a45.1,45.1,0,0,0,1.573-6.728,7.287,7.287,0,0,1,1.92-2.921c1.379-1.243,3.5-2.116,2.678-4.563a4.42,4.42,0,0,0-1.827-2.2c-4.115-2.732-3.7-9.309-3.419-14.05a35.291,35.291,0,0,0,.252-7.7,37.315,37.315,0,0,0-.405-4.5,50.212,50.212,0,0,0-1.335-6.072,23.854,23.854,0,0,0-2.873-6.073C97.474,8.963,89.35,4.417,80.966,2.678A34.5,34.5,0,0,0,55.594,7.356a13.434,13.434,0,0,0-4.3,5.094Z"/><path class="d" d="M89.3,130.279c-2.283-2.872-4.921-6.455-7.49-9.935-.811-5.74-.877-12.666-1.294-17.632,0,0-.038-.452-.09-1.052-.608-.356-2.889-3.355-3.466-3.827l-.321-.378c1.225-3.2,2.594-6.677,3.031-7.989q1.146-1.222,2.371-2.368c.612,1.747,1.03,2.943,1.03,2.943.714,2.043,1.6,5.354,2.451,8.719.4.022.708.048.708.048,1.039,4.485,5.813,27.664,6.036,30.775l.327,4.578-.327-.356C91.39,132.848,90.386,131.644,89.3,130.279Z"/><path class="e" d="M36.582,45.058A28.981,28.981,0,0,1,36.821,33c.264-1.06.925-6.485,4.587-11.021,2.961-3.668,4.619-4.705,7.169-5.341l.553-.851L51.3,12.45a13.434,13.434,0,0,1,4.3-5.094A34.5,34.5,0,0,1,80.966,2.678c8.384,1.739,16.508,6.285,20.6,13.472a29.609,29.609,0,0,1,2.873,6.073l1.335,6.072a21.45,21.45,0,0,1,.292,2.346c-7.366-.311-22.62,1.72-27.262,6C76.432,39,76.3,44.094,73.989,47.506c-.962-1.494-1.847-2.713-3.551-3.306a4.52,4.52,0,0,0-3.864.25c-1.656.994-2.581,3.3-2.658,5.261a11.362,11.362,0,0,0,3.72,9.307l-.343.465c-2.652,3.592-9.994,8.257-15.384,9.561,0,0-.194.076-.5.194-1.736-1.879-3.753-3.625-5.037-5.278A36.593,36.593,0,0,1,36.582,45.058Z"/><path class="f" d="M65.566,58.474c.265-.353-.223.265-.316.37-.2.228-.409.448-.622.664-.494.5-1.016.97-1.554,1.421a31.4,31.4,0,0,1-3.556,2.528,27.935,27.935,0,0,1-8.141,3.659c-2.5.62-1.439,4.478,1.063,3.857a32.481,32.481,0,0,0,9.3-4.187,26.68,26.68,0,0,0,7.283-6.293,2.014,2.014,0,0,0-.717-2.737,2.05,2.05,0,0,0-2.737.718Z"/><path class="f" d="M74.591,44.906a7.388,7.388,0,0,0-6.727-2.95c-2.655.347-4.407,2.3-5.338,4.694-1.485,3.813-.417,8.713,2.012,11.9a16.786,16.786,0,0,0,5.657,4.624c2.278,1.193,4.3-2.258,2.019-3.454a18.26,18.26,0,0,1-2.479-1.534,13.877,13.877,0,0,1-1.876-1.828,9.121,9.121,0,0,1-1.892-4.7c-.172-1.836-.105-3.935,1.283-5.23a2.409,2.409,0,0,1,2.363-.4,4.24,4.24,0,0,1,2.15,1.7,2.01,2.01,0,0,0,2.828,0,2.052,2.052,0,0,0,0-2.828Z"/><path class="f" d="M100.391,46.8c.415,1.411.152,4.653-2.383,4.925-3.351-.026-3.536-3.947-2.411-5.789C96.518,44.424,99.232,43.8,100.391,46.8Z"/><path class="f" d="M104.005,28.613A65.455,65.455,0,0,0,83.834,31.79c-2.673.921-5.661,2.124-7.337,4.525-2.059,2.949-2.2,6.8-4.029,9.866C71.146,48.4,74.6,50.411,75.922,48.2c1.74-2.917,1.98-6.46,3.692-9.347,1.1-1.855,3.79-2.727,5.883-3.406a63.224,63.224,0,0,1,18.508-2.834c2.572-.034,2.579-4.034,0-4Z"/><path class="f" d="M48.045,14.706c-4.778,1.233-8.448,5.464-10.588,9.746A35.672,35.672,0,0,0,34.245,36.2,33.736,33.736,0,0,0,36.09,51.021a41.72,41.72,0,0,0,8.723,14.208c1.017,1.128,2.025,2.239,3.106,3.31a21.19,21.19,0,0,1,3.373,3.707c1.371,2.253.362,4.958-.422,7.254-.835,2.442,3.028,3.49,3.857,1.064a16.062,16.062,0,0,0,1.21-6.559c-.326-3.114-2.154-5.243-4.279-7.388-3.723-3.758-7.321-7.535-9.8-12.265a32.68,32.68,0,0,1-3.784-14.1,33.577,33.577,0,0,1,1.6-10.63,20.229,20.229,0,0,1,4.305-7.61,10.028,10.028,0,0,1,5.13-3.453c2.49-.643,1.434-4.5-1.064-3.857Z"/><path class="f" d="M53.022,13.46a12.725,12.725,0,0,1,4.8-5.135A30.651,30.651,0,0,1,64.871,5.3a32.575,32.575,0,0,1,15.176-.773c9.529,1.858,18.142,7.371,21.923,16.6,1.7,4.146,2.029,8.276,2.264,12.507.269,4.844-.892,9.63-.274,14.477a12.624,12.624,0,0,0,2.1,5.988,13.214,13.214,0,0,0,2.361,2.239c.482.408,1.168,1.057.824,1.714-.322.614-1.345,1.144-1.848,1.568a8.854,8.854,0,0,0-2.33,3.06,15.367,15.367,0,0,0-.859,3.4,43.633,43.633,0,0,1-1.141,4.345c-.839,2.6-2.081,5.367-4.638,6.683-2.236,1.15-5.206,1.232-7.663,1.134a14.791,14.791,0,0,1-3.687-.566c-1.452-.438-2.884-.546-4.092.561a5.813,5.813,0,0,0-1.322,2.451,39.506,39.506,0,0,1-1.744,3.966c-1.162,2.291,2.287,4.318,3.454,2.019.664-1.308,1.253-2.651,1.8-4.013.183-.459.357-.92.528-1.383a2.257,2.257,0,0,0,.126-.347c.1-.643-.363.557-.43.4.092.22,1.236.374,1.456.424.59.134,1.187.224,1.787.3a23.949,23.949,0,0,0,4.349.177,18.051,18.051,0,0,0,7.461-1.668,12.749,12.749,0,0,0,5.472-6.4,38.117,38.117,0,0,0,2.431-8.491,4.851,4.851,0,0,1,1.552-2.949c.7-.638,1.528-1.124,2.165-1.831a5.037,5.037,0,0,0-.335-6.937c-.713-.768-1.69-1.212-2.343-2.045a7.126,7.126,0,0,1-1.2-2.718c-1.214-4.883.242-9.985.069-14.916A43.719,43.719,0,0,0,106,20.525C102.368,10.284,93.1,3.55,82.809,1.045A37.129,37.129,0,0,0,64.4,1.279a34.9,34.9,0,0,0-8.771,3.7,16.661,16.661,0,0,0-6.06,6.466c-1.273,2.242,2.182,4.26,3.453,2.019Z"/><path class="f" d="M104.005,63.136l-4.093-.517a5.118,5.118,0,0,0-2.179-.035A2.652,2.652,0,0,0,96.239,63.8a3.059,3.059,0,0,0-.329,1.555,18.344,18.344,0,0,0,1.589,7.4,2,2,0,0,0,1.2.919,2.043,2.043,0,0,0,1.541-.2,2.017,2.017,0,0,0,.919-1.2,2.3,2.3,0,0,0-.2-1.541c-.158-.356.163.417.03.074-.041-.1-.083-.209-.123-.314q-.132-.354-.244-.714c-.145-.461-.268-.928-.372-1.4-.058-.261-.109-.524-.155-.787-.021-.122-.039-.244-.059-.366-.066-.389.051.464,0,.043-.055-.483-.1-.965-.116-1.45a4.44,4.44,0,0,0-.007-.7.969.969,0,0,1-.229.623,1.028,1.028,0,0,1-.788.663c-.447.126-.355.044-.111.071.565.063,1.129.143,1.693.214l3.529.446a2,2,0,0,0,1.415-.586,2,2,0,0,0,0-2.828,2.339,2.339,0,0,0-1.415-.586Z"/><path class="f" d="M131.983,1.187q-4.062,3.318-8.13,6.628a2.005,2.005,0,0,0,0,2.828,2.056,2.056,0,0,0,2.828,0q4.062-3.318,8.131-6.627a2.008,2.008,0,0,0,0-2.829,2.058,2.058,0,0,0-2.829,0Z"/><path class="f" d="M138.964,14.464q-5.081,1.3-10.164,2.594a2,2,0,0,0,1.064,3.857q5.081-1.3,10.164-2.594a2,2,0,1,0-1.064-3.857Z"/><path class="f" d="M141.115,27.971c-3.492-.173-6.984-.356-10.476-.529a2.014,2.014,0,0,0-2,2,2.045,2.045,0,0,0,2,2c3.492.173,6.984.356,10.476.529a2.013,2.013,0,0,0,2-2,2.043,2.043,0,0,0-2-2Z"/><path class="f" d="M182.684,138.567h87.5a10.808,10.808,0,0,1,1.527,0c.916.135,1.457,1.284,2.058,1.965q1.973,2.239,3.955,4.469c1.714,1.928,4.534-.909,2.829-2.828q-2.048-2.3-4.086-4.617c-1.209-1.372-2.271-2.837-4.249-2.972-.279-.019-.555-.017-.834-.017H194.777c-3.96,0-7.956-.157-11.914,0-.059,0-.119,0-.179,0-2.573,0-2.578,4,0,4Z"/><path class="f" d="M131.6,138.567h6.125a2,2,0,0,0,0-4H131.6a2,2,0,0,0,0,4Z"/><path class="f" d="M70.6,215.533l9.9,0,19.712-.006,27.17-.009,32.277-.011,35.03-.012,35.431-.013,33.48-.011,29.175-.01,22.518-.007,13.508,0h1.652c2.573,0,2.578-4,0-4l-10.973,0-20.551.006-27.779.009-32.653.012-35.174.012-35.343.012-33.16.012-28.623.009-21.734.007-12.493,0H70.6c-2.574,0-2.578,4,0,4Z"/><path class="f" d="M15.733,140.992C10.5,143.617,4.2,146.081,1.458,151.68c-1.509,3.084-1.606,6.7-1.346,10.074.406,5.283,1.115,10.55,1.758,15.807,2,16.348,4.169,32.675,6.347,49q1.091,8.172,2.19,16.343a2.066,2.066,0,0,0,2,2c.969,0,2.144-.922,2-2q-2.471-18.481-4.917-36.965c-1.847-14.109-3.858-28.228-5.22-42.394a29.137,29.137,0,0,1-.036-7.556c1.077-6.44,8.417-8.985,13.518-11.543,2.3-1.154.278-4.606-2.019-3.454Z"/><path class="f" d="M380.284,144.163a69.669,69.669,0,0,1,8.444,4.711,11.71,11.71,0,0,1,4.732,5.694,21.485,21.485,0,0,1,.44,7.832c-.371,5.546-.928,11.082-1.454,16.615q-2.33,24.456-4.966,48.883c-.576,5.4-1.1,10.809-1.814,16.191a2.01,2.01,0,0,0,2,2,2.052,2.052,0,0,0,2-2c1.682-12.653,2.8-25.4,4.1-38.1,1.467-14.335,3.078-28.685,4.1-43.061.221-3.112.4-6.426-.546-9.426-2.107-6.679-9.257-9.9-15.014-12.8-2.294-1.155-4.321,2.294-2.019,3.454Z"/><path class="b" d="M176.95,155.234c0-5.293-9.635-7.532-17.232-7.532-8.056,0-18.645,3.056-18.645,8.12,0,5.985,8.977,7.3,17.955,7.3C165.934,163.125,176.95,161.22,176.95,155.234Z"/><path class="f" d="M178.95,155.234c-.19-6.862-9.285-8.654-14.595-9.265-6.721-.773-14.406-.035-20.42,3.278-2.354,1.3-4.59,3.323-4.838,6.152a7.47,7.47,0,0,0,4.063,6.969c3.039,1.748,6.721,2.25,10.157,2.54a53.6,53.6,0,0,0,10.321-.039c5.584-.611,15.136-2.4,15.312-9.635.063-2.575-3.937-2.574-4,0a2.748,2.748,0,0,1-.585,1.67,6.864,6.864,0,0,1-2.4,1.794,23.1,23.1,0,0,1-7.126,2.016,45.458,45.458,0,0,1-7.883.386,37.374,37.374,0,0,1-8.948-1.075c-1.805-.494-4.19-1.374-4.789-3.194a2.227,2.227,0,0,1,.06-1.826,5.294,5.294,0,0,1,1.922-1.862c4.529-2.877,10.667-3.6,15.914-3.416a31.032,31.032,0,0,1,9.532,1.685,9.851,9.851,0,0,1,3.167,1.74,2.851,2.851,0,0,1,1.132,2.082C175.021,157.8,179.021,157.813,178.95,155.234Z"/><path class="b" d="M169.9,149.9a29,29,0,0,0,2.554-11.914l-.113-.566c.05-2.345-6.744-3.237-12.6-3.383-7.382-.183-13.873.562-14.269,3.248-.155,6.019.066,10.092,1.813,13.684,1.882,3.869,5.735,6.143,10.856,6.143,5.659,0,8.55-2,10.552-5.027A16.78,16.78,0,0,0,169.9,149.9Z"/><path class="f" d="M170.456,137.984a26.306,26.306,0,0,1-1.922,10.074c-.975,2.45-2.461,4.811-4.886,6.015a13.267,13.267,0,0,1-9.323.482,8.9,8.9,0,0,1-5.726-5.566c-1.368-3.713-1.223-7.814-1.128-11.706.062-2.575-3.938-2.574-4,0-.184,7.564.174,16.976,8.2,20.518a17.407,17.407,0,0,0,12.112.51,13.194,13.194,0,0,0,7.5-6.7,29.19,29.19,0,0,0,3.172-13.627c-.044-2.572-4.044-2.58-4,0Z"/><path class="f" d="M159.74,136.035a40.692,40.692,0,0,1,8.312.87,11.053,11.053,0,0,1,2.272.788c.277.176.1-.019.1.06-.013.413.032-1.372-.035-.757-.015.143-.012.51.038-.059a.8.8,0,0,1-.18.295c.177-.057.286-.252,0-.039-.1.075-.191.175-.287.256.394-.33-.13.058-.294.15-.094.053-.815.377-.374.2-.324.131-.655.241-.989.34a18.576,18.576,0,0,1-4.226.713,47.875,47.875,0,0,1-10.355-.4,29.7,29.7,0,0,1-4.4-.967c-.292-.092-.58-.194-.868-.3-.113-.041-.446-.193-.014,0-.127-.057-.258-.111-.381-.178-.181-.1-.361-.218-.545-.308-.435-.212.242.245-.155-.14a2.12,2.12,0,0,1,.195.338c-.008-.046.007,1.075.056.527-.017.188-.083.152.078.026a8.366,8.366,0,0,1,2.276-.845,40.412,40.412,0,0,1,9.783-.576c2.575.058,2.575-3.942,0-4a44.748,44.748,0,0,0-10.847.719c-2.163.491-5,1.649-5.263,4.2-.349,3.42,4.607,4.5,7.071,5.008a49.292,49.292,0,0,0,13.024.909c3.23-.211,7.927-.6,9.938-3.577,1.712-2.535-.309-4.744-2.692-5.679-3.472-1.361-7.548-1.482-11.231-1.584C157.165,131.964,157.167,135.964,159.74,136.035Z"/><path class="b" d="M190.75,181.078c1.67-8.818,5.484-32.057,6.641-37.965a1.006,1.006,0,0,0-1.263-1.153c-8.746,2.5-41.362,16.157-47.379,18.257a1.025,1.025,0,0,0-.695.78c-.716,3.894-1.675,9.887-2.647,16.086-9.02,4.3-24.46,11.682-30.207,14.5a1.014,1.014,0,0,0,.131,1.864c6.568,2.905,25.848,10.618,27.779,10.527,2.384-.112,37.659-16.507,46.8-20.738a.933.933,0,0,0,.544-.65C190.545,182.146,190.643,181.641,190.75,181.078Z"/><path class="f" d="M143.321,203.315c1.638-10.051,3.134-20.124,4.733-30.181q.566-3.558,1.152-7.114.232-1.391.472-2.781.1-.562.2-1.125c.014-.076.133-.448.092-.5.05.071-.935.451-.418.441a5.773,5.773,0,0,0,1.515-.564q.972-.37,1.939-.75,2.585-1.011,5.159-2.046c9.053-3.619,18.081-7.3,27.188-10.786,3.428-1.311,6.865-2.64,10.37-3.734.127-.04.757-.141.814-.246.072-.133-1.138-1.13-1.108-1.158-.05.047-.023.2-.05.262a2.623,2.623,0,0,0-.095.5q-.206,1.1-.4,2.205-.544,3.051-1.067,6.108c-1.629,9.447-3.153,18.916-4.923,28.338a11.837,11.837,0,0,1-.468,2.142l.515-.883a4.226,4.226,0,0,1-1.272.641l-1.812.838L181.8,184.8q-5.052,2.336-10.111,4.654c-7.059,3.233-14.123,6.461-21.249,9.542-2.2.952-4.047,1.786-6.464,2.648-.28.1-.563.189-.846.283-.095.031-.209.041-.3.08-.391.17.516-.034.228-.03-.409,0,.53.156.037.008-.194-.058-.4-.088-.6-.138-.625-.157-1.241-.35-1.855-.546-4.016-1.284-7.956-2.829-11.875-4.379q-3.36-1.329-6.694-2.721-1.4-.585-2.8-1.188-.692-.3-1.382-.6a5.683,5.683,0,0,0-1.547-.689l-.132,1.59c.178-.088.356-.174.534-.261l.829-.4q.874-.424,1.751-.845,1.9-.914,3.8-1.816,4.1-1.951,8.22-3.878c4.8-2.25,9.6-4.481,14.391-6.738,2.328-1.1.3-4.546-2.018-3.454-5.023,2.366-10.059,4.7-15.085,7.064q-4.1,1.922-8.183,3.864-1.87.891-3.738,1.791c-1.221.589-2.9,1.086-3.645,2.294a3.068,3.068,0,0,0,1.008,4.1,21.55,21.55,0,0,0,3.18,1.441q3.915,1.691,7.871,3.283c4.632,1.87,9.292,3.723,14.042,5.276a13.041,13.041,0,0,0,3.889.951,6.418,6.418,0,0,0,2.084-.512c2.875-1.04,5.679-2.3,8.48-3.52,8.349-3.638,16.628-7.441,24.9-11.248q5.092-2.345,10.18-4.7c1.678-.777,3.307-1.283,3.773-3.309.359-1.562.6-3.162.879-4.739,1.693-9.45,3.247-18.924,4.9-28.381.281-1.606.562-3.212.861-4.814a5.528,5.528,0,0,0,.146-2.747,3.1,3.1,0,0,0-3.914-1.895,89.768,89.768,0,0,0-9.442,3.329c-8.859,3.352-17.634,6.923-26.425,10.448-3.2,1.282-6.39,2.577-9.61,3.8-1.685.64-3.372,1.079-3.8,3.113-.377,1.791-.627,3.619-.924,5.424-1.667,10.144-3.195,20.311-4.79,30.467q-.438,2.784-.887,5.568a2.06,2.06,0,0,0,1.4,2.46,2.017,2.017,0,0,0,2.46-1.4Z"/><path class="b" d="M134.807,148.012a3.192,3.192,0,0,0-1.748-2.026c-1.583-.715-4.392.252-6.052.605-1.868.4-4.5,1.2-6.724,1.666,1.685-.989,2.6-2.985,3.974-4.376,1.278-1.295,2.494-2.513,1.79-4.518a3.544,3.544,0,0,0-3.7-2.146c-1.39.15-2.246,1.343-3.275,2.188-2.377,1.951-4.568,4.1-7,6.019-1.207.952-2.97,1.469-3.929,2.683a15.548,15.548,0,0,0-2.078,5.647l-3.087,2.857c2.622,4.435,5.754,10.84,8.308,16.262,4.115-.162,8.581.446,10,.134,2.515-.551,5.246-.741,7.549-1.838,1.971-.94,3.5-4.325,3.546-4.605.352-2.1,1.25-5.914-.083-7.425,1.238-1.2,2.01-2.025,1.755-3.369a3.067,3.067,0,0,0-2.149-2.591,4.454,4.454,0,0,0,2.719-2.453A3.866,3.866,0,0,0,134.807,148.012Z"/><path class="f" d="M32.629,233.847c.368,3.933.807,7.88,1.482,11.774a2.009,2.009,0,0,0,2.46,1.4,2.056,2.056,0,0,0,1.4-2.461c-.094-.541-.178-1.084-.259-1.627q-.084-.57-.165-1.14-.048-.34-.094-.681c-.032-.232-.014-.109.007.051-.018-.139-.037-.278-.055-.417q-.45-3.441-.773-6.9a2.045,2.045,0,0,0-2-2,2.022,2.022,0,0,0-2,2Z"/><path class="f" d="M51.931,81.188q-.174-.215.29.377L49.08,83.989c1.474,1.625,2.813,3.4,4.218,5.081q4.712,5.649,9.489,11.243c3.18,3.715,6.505,7.309,9.666,11.037,2.969,3.5,5.627,7.277,8.35,10.971a158.281,158.281,0,0,0,10.05,12.9c1.738,1.907,4.561-.928,2.829-2.828-6.492-7.122-11.549-15.466-17.625-22.932-2.967-3.648-6.229-7.072-9.3-10.638q-4.841-5.63-9.594-11.333c-1.753-2.1-3.423-4.3-5.26-6.327-1.5-1.65-4.533.6-3.141,2.423.111.145.221.291.335.433a2.014,2.014,0,0,0,2.829,0,2.048,2.048,0,0,0,0-2.829Z"/><path class="f" d="M84.3,99.339c1.99,8.628,3.7,17.348,5.286,26.058.17.934.336,1.867.488,2.8q.087.544.166,1.09c-.09-.621.006.059.024.292.2,2.549,4.2,2.571,4,0A96.631,96.631,0,0,0,92.4,118.792q-1.482-7.61-3.084-15.194c-.374-1.776-.744-3.554-1.152-5.322-.578-2.507-4.436-1.446-3.857,1.063Z"/><path class="f" d="M81.145,90.573c1.254,3.617,2.124,7.379,3.044,11.091l1.4-2.46c-.677.133-1.355.254-2.037.359-.606.093.4-.04-.188.025-.142.016-.284.032-.427.046-.271.027-.543.049-.815.063s-.516.021-.775.021c-.126,0-.251,0-.377-.005-.107,0-.508-.082-.121.018.091.024.764.305.556.178.557.34.355.3.218.161-.1-.1-.2-.2-.3-.3a44.227,44.227,0,0,0-2.942-3.353,2,2,0,0,0-2.828,2.828c1.214,1.037,2.017,2.513,3.188,3.6a2.952,2.952,0,0,0,1.25.774,7.127,7.127,0,0,0,2.053.079,31.992,31.992,0,0,0,4.61-.64,2.027,2.027,0,0,0,1.4-2.46c-.92-3.712-1.79-7.474-3.044-11.092a2,2,0,0,0-3.857,1.064Z"/><path class="f" d="M78.518,102.712c.4,4.848.473,9.716.934,14.56a2.055,2.055,0,0,0,2,2,2.014,2.014,0,0,0,2-2c-.461-4.844-.534-9.712-.934-14.56a2.052,2.052,0,0,0-2-2,2.015,2.015,0,0,0-2,2Z"/><path class="f" d="M41.043,113.307c7.679-.614,16.7,4.23,18.946,11.928.721,2.465,4.582,1.416,3.857-1.063-2.724-9.318-13.344-15.621-22.8-14.865a2.051,2.051,0,0,0-2,2,2.015,2.015,0,0,0,2,2Z"/><path class="f" d="M48.484,84.865a63.042,63.042,0,0,1-1.292,11.867,2.061,2.061,0,0,0,.919,2.259c3.228,1.776,6.312,3.815,9.619,5.448l-.919-2.258c-.474,1.866-1.04,3.713-1.386,5.609a2.107,2.107,0,0,0,.919,2.259c3.548,2.494,6.9,5.364,10.3,8.133,4.379,3.566,8.737,7.159,13.164,10.665a2.062,2.062,0,0,0,2.828,0,2.012,2.012,0,0,0,0-2.828c-4.522-3.582-8.973-7.255-13.448-10.9-3.554-2.893-7.075-5.889-10.827-8.527l.919,2.259c.346-1.9.912-3.744,1.386-5.61a2.031,2.031,0,0,0-.919-2.259c-3.307-1.633-6.391-3.672-9.619-5.448l.919,2.259a68.92,68.92,0,0,0,1.435-12.931c.007-2.574-3.993-2.578-4,0Z"/><path class="f" d="M83.809,94.352c3.48,7.086,4.767,15.17,6.132,22.877,1.473,8.312,3,16.763,3.06,25.222.031,4.233-.13,8.464-.15,12.7-.012,2.574,3.988,2.578,4,0,.018-3.826.155-7.65.154-11.477a100.627,100.627,0,0,0-.987-13.271q-.856-6.483-1.99-12.924c-.637-3.661-1.157-7.405-2.1-11-1.275-4.851-2.439-9.613-4.664-14.144-1.135-2.31-4.586-.285-3.454,2.019Z"/><path class="f" d="M148.782,108.216c-.771.355-.305.125-.062.068.084-.02.17-.037.256-.052.465-.081-.522.051-.14.017a7.7,7.7,0,0,1,1.424-.013c.45.042-.431-.077-.131-.02.118.023.236.044.352.072s.227.061.338.1c.425.146-.442-.249-.061-.025.093.055.185.114.278.169.192.113-.412-.381-.212-.157a1.141,1.141,0,0,0,.1.1c.2.169-.291-.478-.1-.126.04.074.142.3,0-.039-.155-.367-.022-.039,0,.045.039.122.066.244.1.368.073.3-.047-.578-.02-.134.008.116,0,.23,0,.346,0,.174-.1.376.044-.269-.016.073-.026.147-.043.22-.022.1-.054.191-.082.286-.121.423.226-.438.046-.1a6.5,6.5,0,0,1-.374.62c-.154.225.175-.222.17-.22a.776.776,0,0,0-.1.121c-.086.1-.176.2-.269.294a7.173,7.173,0,0,1-.537.494c-.053.044-.107.086-.159.13-.184.156.445-.332.176-.137-.088.064-.177.13-.267.193-.211.147-.428.288-.649.422a20.936,20.936,0,0,1-2.475,1.25,2,2,0,0,0-.919,1.2,2.042,2.042,0,0,0,.2,1.541,2.018,2.018,0,0,0,1.2.92,2.323,2.323,0,0,0,1.541-.2,12.8,12.8,0,0,0,5.59-4.046,5.056,5.056,0,0,0,.7-4.316,4.274,4.274,0,0,0-3.5-2.971,7.614,7.614,0,0,0-4.429.4,2.013,2.013,0,0,0-.92,1.2,2,2,0,0,0,2.938,2.258Z"/><path class="f" d="M143.1,109.09q.042-.45.1-.9c-.068.549,0,0,.019-.084.034-.192.067-.384.107-.574a10.2,10.2,0,0,1,.286-1.086c.045-.136.186-.488.043-.163.089-.2.21-.387.305-.586.172-.36-.217.213.061-.1.065-.074.346-.461.045-.085a2.247,2.247,0,0,1,.256-.149q-.34.135-.126.069c.145-.036.1-.035-.146,0a2.368,2.368,0,0,1,.337,0c-.365-.031.119.163-.124-.006-.006,0,.494.348.285.175a2.887,2.887,0,0,1,.833,1.106,6.338,6.338,0,0,1,.261,3.035,26.457,26.457,0,0,1-.552,3.722c-.142.689-.3,1.375-.455,2.061-.065.285-.122.575-.2.859,0,.008-.2.585-.081.318-.049.111-.379.6-.3.506-.038.044-.444.4-.257.267-.035.026-.511.242-.3.174q-.364.087-.115.036a2.558,2.558,0,0,1-.454-.028,2.014,2.014,0,0,0-2,2,2.046,2.046,0,0,0,2,2c2.631.279,4.828-1.942,5.4-4.352a38.532,38.532,0,0,0,1.35-8.631c.013-2.592-.973-5.4-3.4-6.7a4.288,4.288,0,0,0-5.733,1.642,12.178,12.178,0,0,0-1.446,5.477,2.014,2.014,0,0,0,2,2,2.044,2.044,0,0,0,2-2Z"/><path class="f" d="M139.359,124.021a3.335,3.335,0,0,0,3.108-.968,5.6,5.6,0,0,0,1.22-3.411,24.057,24.057,0,0,0,.116-8.406c-.455-2.071-2.266-4.4-4.569-4.26a5.256,5.256,0,0,0-4.883,4.054,2,2,0,1,0,3.857,1.064s.205-.632.063-.287a4.734,4.734,0,0,1,.254-.47l.095-.139q-.2.255-.057.1c-.006-.118.3-.241-.007-.034.117-.079.261-.141.373-.224-.3.223-.156.058.057,0,.114-.032.236-.045.349-.078.225-.066-.4.006-.028.014.242,0,.466.091-.013-.043-.257-.123-.318-.146-.181-.069.119.074.084.04-.1-.1.1.091.2.186.295.283s.234.3.077.076c.105.15.2.305.294.465.024.043.262.568.107.169a4.28,4.28,0,0,1,.22.851,22.654,22.654,0,0,1-.1,5.382c-.082.764-.292,1.532-.359,2.363-.021.25.122-.269-.035.051q.233-.279.084-.126-.165.157.15-.106c-.372.192.428-.092.058-.015l.338-.039q-.322,0,.287.051a2,2,0,1,0-1.063,3.857Z"/><path class="f" d="M121.355,124.11c.351-.2.7-.4,1.066-.583.131-.066.262-.131.395-.193.1-.049.68-.353.177-.09a7.617,7.617,0,0,1,1.9-.6c.153-.032.307-.058.461-.086q.331-.048-.134.018c.089-.009.178-.018.267-.025a8.3,8.3,0,0,1,.946-.021c.185.006.368.024.552.036.412.028-.417-.083.028,0,.389.075.772.155,1.154.264a2,2,0,0,0,1.063-3.857,11.185,11.185,0,0,0-5.269-.216,15.291,15.291,0,0,0-4.619,1.9,2,2,0,1,0,2.018,3.454Z"/><path class="f" d="M133.467,122.377c.288-.8.559-1.6.85-2.392.149-.406.3-.81.466-1.211.044-.109.089-.217.134-.326q-.164.371-.038.129.168-.254-.128.148c.048-.056.1-.11.151-.161s.111-.1.17-.151c-.255.191-.3.227-.123.106.137-.077.274-.157.412-.234.194-.09.143-.069-.153.06.072-.027.145-.053.218-.076.136-.042.3-.052.428-.105-.362.041-.438.054-.231.036.062,0,.125,0,.187,0q-.579-.1-.282-.037c.086.021.171.044.256.069s.164.05.246.079c.2.076.16.055-.129-.063.062.085.33.164.427.224.066.041.131.084.194.13-.249-.2-.3-.23-.139-.093.056.052.109.106.16.163q.2.239-.1-.133c.043.064.083.131.12.2q.139.284-.053-.149a2.351,2.351,0,0,0,.127.459q.05.306-.025-.2c.009.082.016.165.022.248.013.179.02.358.023.537.007.347,0,.7-.023,1.043-.028.383-.085.764-.13,1.145-.025.209-.051.418-.076.628q-.044.344.012-.078c-.014.1-.028.2-.043.3a11.823,11.823,0,0,1-.573,2.293,2.01,2.01,0,0,0,1.4,2.461,2.054,2.054,0,0,0,2.46-1.4,21.03,21.03,0,0,0,.892-4.779,7.89,7.89,0,0,0-.5-4.417,5.167,5.167,0,0,0-4.171-2.619,5.237,5.237,0,0,0-4.008,1.732,9.134,9.134,0,0,0-1.375,2.838c-.312.842-.6,1.694-.9,2.538a2.011,2.011,0,0,0,1.4,2.46,2.052,2.052,0,0,0,2.46-1.4Z"/><path class="f" d="M135.821,124.957c.149-.4-.035.055-.095.142-.252.366.176-.148-.12.146-.055.054-.415.375-.155.172a4.738,4.738,0,0,1-.587.374,8.654,8.654,0,0,1-2.365.841,62.44,62.44,0,0,1-6.932.9,8.406,8.406,0,0,0-5.34,2.515,15.254,15.254,0,0,0-2.271,3.986,2.06,2.06,0,0,0,.718,2.737,2.017,2.017,0,0,0,2.736-.718c.308-.667.583-1.35.919-2,.157-.306.329-.6.513-.888.03-.047.369-.472.1-.151.113-.136.232-.267.357-.391a4.227,4.227,0,0,1,.406-.363c-.3.227.161-.085.225-.123a2.985,2.985,0,0,1,1.028-.429,18.657,18.657,0,0,1,3.37-.422c3.988-.384,9.709-.89,11.35-5.264a2.017,2.017,0,0,0-1.4-2.46,2.042,2.042,0,0,0-2.46,1.4Z"/><path class="f" d="M130.676,114.723c.679-.334,1.368-.645,2.064-.941l-.478.2a15.8,15.8,0,0,1,3.9-1.272l-.531.071a3.146,3.146,0,0,1,.363-.024,2,2,0,0,0,0-4,10.342,10.342,0,0,0-3.51.853c-1.3.49-2.58,1.044-3.826,1.657a2.011,2.011,0,0,0-.717,2.736,2.051,2.051,0,0,0,2.736.718Z"/><path class="f" d="M97.6,135.576c3.15-3.788,6.641-7.317,9.626-11.24l-3.142.4c2.818,2.2,5.577,4.469,8.292,6.79a57.027,57.027,0,0,1,7.728,7.33,2.013,2.013,0,0,0,2.829,0,2.049,2.049,0,0,0,0-2.828,57.034,57.034,0,0,0-7.729-7.33c-2.714-2.321-5.474-4.594-8.291-6.79a2.051,2.051,0,0,0-3.141.4c.444-.584-.345.411-.484.578q-.566.677-1.142,1.344c-.907,1.058-1.823,2.11-2.738,3.161-1.549,1.778-3.129,3.534-4.637,5.347-1.635,1.966,1.18,4.811,2.829,2.829Z"/><path class="f" d="M107.989,154.286a16.6,16.6,0,0,1,1.249-4.13,4.785,4.785,0,0,1,2.413-2.11c2.93-1.628,5.317-4.231,7.848-6.4.62-.531,1.245-1.051,1.844-1.607a2.641,2.641,0,0,1,1.247-.849,1.483,1.483,0,0,1,1.657,1.111c.13,1.055-1.219,1.924-1.821,2.618a27.78,27.78,0,0,1-3.027,3.561,2.013,2.013,0,0,0,0,2.828,2.045,2.045,0,0,0,2.828,0,21.8,21.8,0,0,0,2.827-3.322,17.422,17.422,0,0,0,2.684-3.334,5.256,5.256,0,0,0-3.649-7.29c-3.416-.773-5.645,1.908-7.977,3.937-1.3,1.131-2.569,2.3-3.881,3.411a23.352,23.352,0,0,1-3.479,2.37c-2.933,1.723-4.008,4.951-4.62,8.14a2.054,2.054,0,0,0,1.4,2.46,2.018,2.018,0,0,0,2.46-1.4Z"/><path class="f" d="M121.222,150.1c2.119-.473,4.2-1.106,6.317-1.579.883-.2,1.753-.443,2.639-.623.241-.049.483-.1.727-.131.144-.022.137-.021-.019.005.134-.014.268-.024.4-.032.226-.011.449-.008.674,0,.151.012.124.006-.081-.019a3.269,3.269,0,0,1,.336.078q.315.108,0,0l.161.091c.194.13.2.131.032,0a3.028,3.028,0,0,1,.251.243c.285.275-.049-.186.095.149a3.337,3.337,0,0,1,.157.3q-.138-.322-.024,0c.013.072.1.612.059.14.02.23,0,.456.009.685-.016-.4,0,0-.038.142-.028.11-.061.219-.1.326q.159-.35-.028.042c-.105.188-.206.373-.328.551.173-.252-.259.263-.312.32-.263.285.2-.082-.149.119-.2.112-.387.224-.589.326.305-.155.027-.012-.134.044-.179.062-.36.115-.543.166-.38.106-.765.192-1.148.285a2,2,0,1,0,1.064,3.857,8.714,8.714,0,0,0,4.524-2.164,6.23,6.23,0,0,0,1.613-5.737,5.148,5.148,0,0,0-4.29-3.888c-1.93-.257-3.841.356-5.7.789-2.222.516-4.415,1.153-6.641,1.65a2,2,0,0,0,1.063,3.858Z"/><path class="f" d="M131.846,155.169c-.884-.1-.251-.158-.155.1.1.274.388.517.4.831.035.666-.776,1.2-1.212,1.629a2.055,2.055,0,0,0,0,2.828,6.477,6.477,0,0,1,.093,2.078,26.452,26.452,0,0,1-.435,2.908,5.243,5.243,0,0,1-3.738,4.33,22.545,22.545,0,0,1-7.143,1.209,65.161,65.161,0,0,1-8.476-.2,2.014,2.014,0,0,0-2,2,2.043,2.043,0,0,0,2,2,68.269,68.269,0,0,0,9.551.156c3.246-.148,6.9-.707,9.707-2.465,2.5-1.568,3.608-3.988,4.107-6.79.484-2.716.989-5.728-.838-8.053v2.828c1.6-1.563,2.842-3.322,2.19-5.655a4.889,4.889,0,0,0-4.055-3.729,2.011,2.011,0,0,0-2,2,2.048,2.048,0,0,0,2,2Z"/><path class="f" d="M48.79,81.593a29,29,0,0,1-2.85,4.576c-.94,1.326-1.608,2.787-2.5,4.116-1.941,2.9-4.061,5.622-6.219,8.361a62.257,62.257,0,0,0-6.065,8.735,31.183,31.183,0,0,0-3.35,9.962A104.592,104.592,0,0,0,26.972,139c.293,6.391.569,12.784,1.033,19.166a164.21,164.21,0,0,0,2.387,19.864c1.147,5.813,3.07,11.682,7.139,16.136,7.442,8.148,19.208,7.214,28.9,4.481,14.211-4.009,27.741-10.69,40.5-18.011q2.643-1.515,5.261-3.071a2.055,2.055,0,0,0,.718-2.737c-3.479-7.471-6.506-15.2-10.332-22.5a2.008,2.008,0,0,0-2.258-.919c-10.5,3.939-20.883,8.206-31.366,12.2-2.3.874-4.589,1.758-6.913,2.553-2.422.829-1.382,4.694,1.063,3.857,10.938-3.743,21.639-8.264,32.4-12.475,1.956-.766,3.909-1.541,5.876-2.278l-2.259-.919c3.826,7.3,6.854,15.031,10.332,22.5l.717-2.736c-12.888,7.633-26.133,14.42-40.334,19.274-8.392,2.869-19.631,5.883-27.416-.114-4.243-3.269-6.346-8.5-7.572-13.546a119.178,119.178,0,0,1-2.576-18.1c-.532-6.305-.846-12.626-1.135-18.946-.3-6.575-.731-13.166-.074-19.734a42.249,42.249,0,0,1,2-10.141,34.635,34.635,0,0,1,4.916-8.614c2.011-2.743,4.212-5.34,6.254-8.059,1.955-2.6,3.4-5.457,5.274-8.1a27.787,27.787,0,0,0,2.735-4.415,2.058,2.058,0,0,0-.717-2.736,2.016,2.016,0,0,0-2.736.717Z"/><path class="f" d="M62.3,136.569c.065,4.865-.113,9.728-.275,14.589-.175,5.242,0,10.461.07,15.7.032,2.572,4.032,2.579,4,0-.066-5.242-.245-10.461-.07-15.7.162-4.861.34-9.724.275-14.589-.033-2.572-4.033-2.579-4,0Z"/><path class="f" d="M73.8,236.36a124.253,124.253,0,0,1-17.968-1.151A156.1,156.1,0,0,1,37.7,231.3q-2.457-.663-4.894-1.4-1.179-.357-2.353-.734c-.5-.162-.912-.163-1-.7a6.9,6.9,0,0,1,.452-2.088q.351-1.6.684-3.2c1.079-5.159,2.1-10.331,3.134-15.5,1.138-5.671,2.257-11.348,3.545-16.987.572-2.506-3.284-3.576-3.857-1.064-2.451,10.732-4.4,21.575-6.651,32.35a48.386,48.386,0,0,0-1.289,6.166c-.3,4.126,4.018,4.947,7.079,5.854a170.976,170.976,0,0,0,20.037,4.719A126.5,126.5,0,0,0,73.8,240.36c2.574,0,2.578-4,0-4Z"/><path class="f" d="M311.394,182.641q11.441,12.7,22.981,25.311,2.123,2.305,4.258,4.6.418.448.838.9c.078.084.506.642.365.283a9,9,0,0,1,0,2.6q0,3.111,0,6.223c0,1,.072.86-.805.86H62.61a4.6,4.6,0,0,1-1.444,0c-.389-.186-.221-.271-.218-.928.007-1.174.008-2.348.009-3.521q0-1.722,0-3.442a10.277,10.277,0,0,0,0-1.325c-.012-.088-.024-.419-.021-.437-.036.211-.125.273.062.007a35.91,35.91,0,0,1,3-3.257q2.076-2.264,4.146-4.532c2.571-2.814,5.138-5.633,7.73-8.427,1.749-1.886-1.073-4.721-2.828-2.829-2.723,2.935-5.417,5.9-8.117,8.851q-2.146,2.349-4.3,4.694c-.96,1.045-2.055,2.05-2.911,3.181-1.246,1.647-.768,4.3-.767,6.243q0,1.7,0,3.4a10.445,10.445,0,0,0,.281,3.785c.986,2.541,3.439,2.541,5.7,2.541h274.4c1.408,0,3.111.213,4.374-.473,2.237-1.216,2.124-3.52,2.125-5.725q0-3.175,0-6.35a6.68,6.68,0,0,0-.26-2.483,8.087,8.087,0,0,0-1.9-2.431q-2.179-2.333-4.338-4.681-5.418-5.886-10.787-11.816-6.178-6.807-12.329-13.641c-1.726-1.917-4.548.919-2.828,2.828Z"/><path class="b" d="M296.934,167.311c0-5.293-9.635-7.532-17.231-7.532-8.057,0-18.646,3.056-18.646,8.12,0,5.985,8.977,7.3,17.955,7.3C285.918,175.2,296.934,173.3,296.934,167.311Z"/><path class="f" d="M298.934,167.311c-.189-6.862-9.285-8.654-14.594-9.265-6.722-.773-14.407-.035-20.42,3.278-2.355,1.3-4.591,3.323-4.838,6.152a7.469,7.469,0,0,0,4.062,6.969c3.04,1.748,6.721,2.25,10.157,2.54a53.6,53.6,0,0,0,10.321-.039c5.584-.611,15.137-2.4,15.312-9.635.063-2.575-3.937-2.574-4,0a2.748,2.748,0,0,1-.585,1.67,6.864,6.864,0,0,1-2.4,1.794,23.1,23.1,0,0,1-7.126,2.016,45.458,45.458,0,0,1-7.883.386A37.374,37.374,0,0,1,268,172.1c-1.805-.494-4.189-1.374-4.788-3.194a2.227,2.227,0,0,1,.059-1.826,5.294,5.294,0,0,1,1.922-1.862c4.529-2.877,10.667-3.6,15.915-3.416a31.031,31.031,0,0,1,9.531,1.685,9.851,9.851,0,0,1,3.167,1.74,2.848,2.848,0,0,1,1.132,2.082C295.005,169.88,299.006,169.89,298.934,167.311Z"/><path class="b" d="M293.366,160.669a31.172,31.172,0,0,0,2.747-12.815l-.122-.608c.055-2.523-7.253-3.482-13.554-3.638-7.939-.2-14.921.6-15.347,3.493-.167,6.474.071,10.854,1.95,14.717,2.024,4.161,6.169,6.607,11.676,6.607,6.086,0,9.2-2.147,11.349-5.407A18.052,18.052,0,0,0,293.366,160.669Z"/><path class="f" d="M294.113,147.854A28.262,28.262,0,0,1,292,158.843c-1.082,2.671-2.726,5.232-5.4,6.506a14.506,14.506,0,0,1-10.046.466A9.718,9.718,0,0,1,270.3,159.7c-1.451-4.008-1.312-8.4-1.209-12.6.062-2.575-3.938-2.574-4,0-.195,7.991.136,18.138,8.649,21.9a18.639,18.639,0,0,0,12.982.581,13.982,13.982,0,0,0,7.939-7.026,31.13,31.13,0,0,0,3.453-14.7c-.046-2.571-4.046-2.579-4,0Z"/><path class="f" d="M282.437,145.608a43.085,43.085,0,0,1,9.118.974,9.436,9.436,0,0,1,2.451.922c.393.314,0,.049.036,0l.081.143a.9.9,0,0,1-.087-.821c-.013.115-.195.542.043-.058a1.229,1.229,0,0,1-.241.393c.478-.438-.177.118-.291.215.428-.365-.15.076-.285.154s-.936.442-.507.269a11.958,11.958,0,0,1-1.158.394,19.833,19.833,0,0,1-4.44.742,51.522,51.522,0,0,1-11.31-.437,31.278,31.278,0,0,1-4.773-1.063c-.264-.084-.523-.181-.785-.272-.089-.031-.569-.244-.086-.027-.128-.058-.258-.112-.382-.178-.22-.117-.432-.257-.653-.369-.434-.222.265.291-.152-.141-.246-.255.257.434.1.137-.211-.406.107.428.055.133,0-.011-.019,1.047.057.522-.026.183-.082.141.061.008a3.363,3.363,0,0,1,.848-.5,10.57,10.57,0,0,1,1.621-.484,42.905,42.905,0,0,1,10.677-.65c2.575.058,2.574-3.942,0-4a48.059,48.059,0,0,0-11.587.759c-2.312.52-5.571,1.824-5.628,4.67-.068,3.414,5.123,4.463,7.607,4.969a52.951,52.951,0,0,0,13.863.96c3.419-.22,8.474-.62,10.6-3.788,1.771-2.638-.352-4.9-2.819-5.873-3.718-1.462-8.091-1.589-12.036-1.7C279.862,141.537,279.864,145.537,282.437,145.608Z"/><path class="b" d="M282.614,166.326a4.77,4.77,0,0,1-.129-3.344,10.332,10.332,0,0,1,1.18-2.727,4.1,4.1,0,0,1-2.337-2.025c-.8-1.482.272-3.916,1.949-4.8,1.434-.756,3.347.281,4.914.516.242.036.5.079.766.126-2.217-7.513,8.687-4.584,11.238-3.08,2.168,1.278,7.494,6.71,7.923,8.445l.6,2.417a77.931,77.931,0,0,0-3.391,14.7c-4.31.595-8.813,1.924-10.305,1.691-2.376-.372-4.931-.394-7.139-1.286a10.833,10.833,0,0,1-4.488-3.532c-.8-1.539-1.038-4.332.119-5.816A3.393,3.393,0,0,1,282.614,166.326Z"/><path class="f" d="M330.633,202.306c10.695-.005,21.392-.234,32.087-.346,2.035-.021,4.07-.048,6.1-.049,2.573,0,2.578-4,0-4-10.671,0-21.344.236-32.014.346-2.059.022-4.119.048-6.178.049-2.574,0-2.578,4,0,4Z"/><path class="f" d="M355.713,99.41c1.22,3.733,3.446,7.046,5.5,10.361a55.152,55.152,0,0,1,6.112,12.269c.77,2.447,4.633,1.4,3.857-1.063a57.17,57.17,0,0,0-6.157-12.644c-1.964-3.193-4.276-6.393-5.45-9.987-.8-2.436-4.66-1.393-3.858,1.064Z"/><path class="f" d="M322.025,114.91c2.339,1.282,5.331,1.122,7.9.866a50.3,50.3,0,0,0,10.006-2.043c4.8-1.5,8.742-4.26,12.681-7.333,2.228-1.737,4.989-3.794,6.182-6.448a2.062,2.062,0,0,0-.718-2.736,2.015,2.015,0,0,0-2.736.717c-.837,1.862-2.8,3.412-4.5,4.8a69.84,69.84,0,0,1-6.09,4.391c-3.962,2.581-8.635,3.759-13.278,4.462a28.048,28.048,0,0,1-4.631.342c-.5-.008-1.308-.063-1.555-.105-.276-.048-.543-.117-.813-.188-.436-.115.016.068-.429-.176-2.258-1.237-4.279,2.216-2.018,3.454Z"/><path class="f" d="M349.973,122.205a8.7,8.7,0,0,1,8.667-5.289c4.193.244,6.865,3.8,8.6,7.244,1.162,2.3,4.614.276,3.454-2.019-2.432-4.812-6.389-8.9-12.058-9.225a12.556,12.556,0,0,0-12.121,7.27,2.054,2.054,0,0,0,.718,2.736,2.017,2.017,0,0,0,2.736-.717Z"/><path class="f" d="M367.459,123.587c2.727,10.346.259,21.131-1.58,31.406-.711,3.973-1.2,7.971-1.836,11.954a35.861,35.861,0,0,1-2.608,9.725c-1.583,3.332-4.007,5.764-7.688,6.555-2.516.541-1.451,4.4,1.063,3.857,7.994-1.718,11.269-9.471,12.68-16.738.762-3.928,1.153-7.919,1.822-11.863.956-5.64,2.119-11.244,2.806-16.927a50.644,50.644,0,0,0-.8-19.033c-.655-2.487-4.515-1.432-3.857,1.064Z"/><path class="f" d="M343.608,126.809a120.541,120.541,0,0,0-2.824,36.385c.18,2.553,4.181,2.573,4,0a116.805,116.805,0,0,1,2.682-35.322c.591-2.5-3.265-3.571-3.858-1.063Z"/><path class="f" d="M366.891,200.146a182.241,182.241,0,0,1,2.353,22.534,59.453,59.453,0,0,1-.305,10.895,12.2,12.2,0,0,1-5.394,8.787c-2.13,1.422-.13,4.888,2.019,3.454a16.043,16.043,0,0,0,6.384-7.81,27.843,27.843,0,0,0,1.315-8.6A130.959,130.959,0,0,0,372.1,208.78c-.383-3.241-.825-6.477-1.352-9.7a2.017,2.017,0,0,0-2.46-1.4,2.048,2.048,0,0,0-1.4,2.461Z"/><path class="f" d="M363.422,171.148c.355,5.082,1.777,10.088,2.787,15.066.527,2.6,1.028,5.205,1.413,7.828a24.184,24.184,0,0,1,.354,5.79,2.014,2.014,0,0,0,2,2,2.045,2.045,0,0,0,2-2,26.419,26.419,0,0,0-.4-6.135c-.366-2.65-.859-5.282-1.385-7.905-.967-4.829-2.429-9.717-2.773-14.644-.178-2.553-4.179-2.573-4,0Z"/><path class="f" d="M321.214,110.931c-4.072,4.807-6.873,10.642-9.248,16.433-2.582,6.294-4.829,13.008-4.144,19.9a61.021,61.021,0,0,0,3.351,13.632c.827,2.423,4.692,1.383,3.857-1.063-1.617-4.738-3.2-9.625-3.345-14.672a33.078,33.078,0,0,1,2.165-11.446,82.747,82.747,0,0,1,4.489-10.8,45.723,45.723,0,0,1,5.7-9.158c1.654-1.953-1.162-4.8-2.829-2.828Z"/><path class="f" d="M310.046,158.907c-.527-1.855-2.134-3.463-3.407-4.836a31.02,31.02,0,0,0-5.017-4.535,13.84,13.84,0,0,0-4.446-1.788,14.817,14.817,0,0,0-6.241-.415,5,5,0,0,0-4.269,4.744,2.018,2.018,0,0,0,2,2,2.038,2.038,0,0,0,2-2c.02-.244.016-.242-.01.008a2.866,2.866,0,0,1,.08-.316q.114-.322-.028.053a2.223,2.223,0,0,1,.151-.253c-.407.245.051-.022.172-.124-.4.338.107-.023.218-.08-.453.233.141-.035.261-.067a5.483,5.483,0,0,1,.658-.135c-.488.07.269,0,.357-.006.249-.009.5-.007.748,0s.514.028.77.053c.13.013.26.027.389.043q-.309-.04.054.013.772.128,1.534.314.719.177,1.422.406c.214.07.427.143.639.221.1.037.749.305.231.08a7.858,7.858,0,0,1,.873.431c.166.1.323.207.482.314.091.064.18.13.269.2q-.253-.2.028.024a33.652,33.652,0,0,1,2.661,2.418,37.046,37.046,0,0,1,2.547,2.783c.089.108.176.217.263.327q-.161-.21.045.064c.138.189.275.38.4.577.1.162.186.356.3.509.224.3-.126-.434.008.038.7,2.472,4.563,1.421,3.857-1.063Z"/><path class="f" d="M294.7,153.132c-1.88-.3-3.733-.746-5.612-1.056s-3.706-1.18-5.649-.805a5.9,5.9,0,0,0-3.993,3.8,5.106,5.106,0,0,0,.971,5.325,7.468,7.468,0,0,0,4.739,2.242,2.047,2.047,0,0,0,2.461-1.4,2.026,2.026,0,0,0-1.4-2.46,14.846,14.846,0,0,1-2.041-.464c-.454-.15.323.2-.094-.048-.078-.047-.635-.424-.276-.135-.137-.11-.254-.238-.382-.358-.276-.256.032.128-.156-.2-.077-.117-.148-.238-.215-.361q.145.392.036.077a1.74,1.74,0,0,1-.052-.213q-.045-.225.023.162c.007-.052.037-.655-.006-.353s.084-.306.1-.365c.049-.159.2-.444.045-.144.106-.2.221-.394.339-.59.2-.339-.2.161.108-.131.042-.04.476-.456.29-.3s.283-.175.345-.206c-.323.162.134-.017.216-.03-.43.067.209.039.307.047.143.013.127.01-.049-.009.132.023.262.05.393.08.872.195,1.712.5,2.6.643,1.971.318,3.915.784,5.887,1.1a2.051,2.051,0,0,0,2.46-1.4,2.022,2.022,0,0,0-1.4-2.46Z"/><path class="f" d="M281.785,159.461c-1.758,2.867-2.346,7.038.311,9.561l-.313-2.424a7.9,7.9,0,0,0-.119,7.835c1.372,2.416,4.4,4.2,7.007,4.881a36.583,36.583,0,0,0,4.944.742,12.439,12.439,0,0,0,3.484.044c3-.437,5.922-1.267,8.929-1.645a2.064,2.064,0,0,0,2-2,2.012,2.012,0,0,0-2-2c-2.7.339-5.35.909-8.017,1.438a12.812,12.812,0,0,1-2.484.375,29.945,29.945,0,0,1-3.534-.4,10.255,10.255,0,0,1-6.339-2.808,3.75,3.75,0,0,1-.417-4.446,2.008,2.008,0,0,0-.313-2.423,2.452,2.452,0,0,1-.662-2.161,8.327,8.327,0,0,1,.977-2.553c1.35-2.2-2.109-4.212-3.454-2.019Z"/><path class="c" d="M354.278,185.156c-6.747,1.769-20.142.369-27.067-.619-9.37-1.336-18.047-4.888-22.038-6.139.195-5.092,3.034-16.565,4.344-18.214,6.377.692,11.47,1.073,18.089,1.926,6.635.856,13.744,1.537,17.111,1.778Z"/><path class="f" d="M353.747,183.227a34.018,34.018,0,0,1-8.362.775c-3.357,0-6.712-.209-10.054-.515a97.372,97.372,0,0,1-20.435-3.921c-3.086-.968-6.109-2.121-9.192-3.1l1.469,1.929a52.386,52.386,0,0,1,1.682-9.866c.392-1.617.818-3.228,1.329-4.812.191-.595.388-1.192.629-1.768-.141.338.075-.164.133-.27a4.339,4.339,0,0,1,.3-.489l-1.727.991c6.185.667,12.38,1.2,18.552,1.986,5.532.7,11.086,1.314,16.648,1.718,2.568.187,2.556-3.814,0-4-8.71-.633-17.349-1.913-26.034-2.78-2.221-.222-4.442-.433-6.662-.661-1.057-.108-2.55-.554-3.513.01a3.052,3.052,0,0,0-1.08,1.336,36.93,36.93,0,0,0-2.5,7.99,57.293,57.293,0,0,0-1.75,10.615,2.033,2.033,0,0,0,1.468,1.929c6.639,2.1,13.084,4.587,19.977,5.808A122.581,122.581,0,0,0,344.485,188a40.3,40.3,0,0,0,10.325-.913c2.494-.632,1.437-4.491-1.063-3.857Z"/><path class="f" d="M311.716,128.553c-2.135,4.1-3.508,8.562-5.765,12.6a8.794,8.794,0,0,1-3.231,3.487,25.212,25.212,0,0,1-5.364,2.155c-2.445.776-1.4,4.639,1.063,3.858,4.085-1.3,8.155-2.838,10.508-6.657,2.594-4.212,3.966-9.053,6.243-13.428,1.187-2.281-2.264-4.306-3.454-2.019Z"/><path class="f" d="M326.526,100.208a18.779,18.779,0,0,1-.666,2.693q-.238.746-.52,1.475c-.107.28-.219.558-.334.835.078-.188.054-.124-.012.025s-.124.279-.187.418a30.81,30.81,0,0,1-1.5,2.912c-.264.449-.54.89-.832,1.322q-.208.309-.429.609c-.063.087-.128.173-.192.258.288-.384-.031.031-.075.085a2.048,2.048,0,0,0,0,2.828,2.022,2.022,0,0,0,2.828,0,27.022,27.022,0,0,0,3.657-6,25.765,25.765,0,0,0,2.122-6.4,2.049,2.049,0,0,0-1.4-2.46,2.023,2.023,0,0,0-2.46,1.4Z"/><path class="g" d="M343.371,21.335q-1.926-.183-4.036-.216a39.215,39.215,0,0,0-11.186,1.756,29.424,29.424,0,0,0-16.823,14.543,27.951,27.951,0,0,0-1.816,4.605l.816.769a92.076,92.076,0,0,0,23.8,16.225,16.275,16.275,0,0,0,5.639,1.793l2.693.2a5.175,5.175,0,0,1,.919-.29,4.49,4.49,0,0,1,3.779.7c1.514,1.176,2.153,3.559,2,5.5-.409,5.1-3.147,8.454-7.838,10.418,1.314,3.738,2.71,7.547,2.785,11.454.054,2.792-1.459,8.708-4.377,10.942,10.2,7.054,22.275,6.133,27.055,4.872,3.6-.951,6.115-3.258,6.612-7.228A23.108,23.108,0,0,0,373,89.34c-.75-3.72-1.292-11.865,1.2-23.158a49.664,49.664,0,0,0,1.21-11.667,31.645,31.645,0,0,0-6.265-17.958C362.523,28.121,355.615,22.494,343.371,21.335Z"/><path class="f" d="M341.839,63.9c1.179-1.2,3.329-2.031,4.538-.439.948,1.248.91,3.3.552,4.906-.81,3.632-3.329,5.988-6.881,7.336a2.057,2.057,0,0,0-1.4,2.461,2.014,2.014,0,0,0,2.46,1.4c4.064-1.543,7.44-4.12,9.092-8.241,1.566-3.909,1.542-10.1-2.919-12.134a7.364,7.364,0,0,0-8.273,1.887c-1.808,1.836,1.018,4.666,2.828,2.828Z"/><path class="f" d="M313.546,59.734c-.575,1.341-.7,4.568,1.766,5.136,3.306.371,3.952-3.472,3.062-5.421C317.644,57.854,315.043,56.918,313.546,59.734Z"/><path class="f" d="M305.717,81.109a13.044,13.044,0,0,0,6.482-1.184,2.025,2.025,0,0,0,.92-1.195,2,2,0,0,0-2.938-2.258q-.209.1-.421.2l.477-.2a9.334,9.334,0,0,1-2.375.626l.532-.072a15.45,15.45,0,0,1-2.677.089,2.014,2.014,0,0,0-2,2,2.044,2.044,0,0,0,2,2Z"/><path class="f" d="M329.448,98.926a33.332,33.332,0,0,0-1.269-3.737c-.173-.431-.355-.859-.536-1.287-.068-.16-.239-.561.052.124a4.245,4.245,0,0,0-.663-1.178c-1.771-2.085-4.447-.887-6.788-.946a19.393,19.393,0,0,1-7.35-1.512,7.905,7.905,0,0,1-4.027-4.818,32.023,32.023,0,0,1-1.428-8.3,9.378,9.378,0,0,0-3.013-6.463c-.468-.465-1.193-.934-.9-1.659.357-.886,1.591-1.222,2.3-1.749a10.751,10.751,0,0,0,3.628-5.271c1.85-5.268.9-10.959,1.972-16.351.5-2.514-3.357-3.59-3.857-1.063-.98,4.947-.325,10.07-1.56,14.967-.449,1.783-1.179,3.677-2.818,4.681-2.192,1.345-4.325,3.293-3.647,6.172.528,2.24,2.827,3.2,3.635,5.254a11.925,11.925,0,0,1,.393,3.2,47.126,47.126,0,0,0,.69,4.773,16.147,16.147,0,0,0,3.487,7.711,12.455,12.455,0,0,0,6.256,3.493,23.415,23.415,0,0,0,8.625.835c.346-.039.7-.081,1.039-.142.164-.025.327-.054.489-.088q.3-.067-.158-.153c-.029.012-.519-1.173.054.188.033.076.144.341.055.126a35.1,35.1,0,0,1,1.479,4.251c.672,2.482,4.532,1.429,3.857-1.063Z"/><path class="f" d="M309.966,51.3a29.711,29.711,0,0,1,6.312-17.837,27.117,27.117,0,0,1,14.631-9.276c10.748-2.63,22.584-.443,30.824,7.153,3.986,3.674,7.691,8.082,9.627,13.2A34.634,34.634,0,0,1,372.881,62.4c-.557,3.548-1.426,7.028-1.9,10.594a67.816,67.816,0,0,0-.617,8.59,46.711,46.711,0,0,0,.427,6.634,35.67,35.67,0,0,1,.695,8.223,6.449,6.449,0,0,1-4.29,5.942,21.05,21.05,0,0,1-6.25,1.05,33,33,0,0,1-19.406-4.886c-2.18-1.383-4.189,2.077-2.019,3.454a36.513,36.513,0,0,0,19.382,5.477c4.7.023,10.777-.43,14.057-4.275,2.231-2.616,2.717-6.065,2.6-9.406a35.656,35.656,0,0,0-.689-5.236,19.941,19.941,0,0,1-.318-2.331,62.894,62.894,0,0,1,1.362-18.558c1.418-6.778,2.148-13.594.475-20.4-1.585-6.448-5.119-11.8-9.628-16.575a36.049,36.049,0,0,0-13.253-9.13,39.728,39.728,0,0,0-19.733-2.015A31.354,31.354,0,0,0,306.61,45.53a41.184,41.184,0,0,0-.644,5.774c-.1,2.574,3.9,2.57,4,0Z"/><path class="f" d="M339.578,78.421c1.327,3.773,3.031,8.263,2.39,12.131-.433,2.609-1.435,6.337-3.737,7.782-2.175,1.365-.17,4.827,2.019,3.454,3.275-2.055,4.87-6.277,5.531-9.921.906-5-.7-9.838-2.346-14.51-.849-2.412-4.714-1.373-3.857,1.064Z"/><path class="f" d="M308.912,44.206A95.9,95.9,0,0,0,323.14,55.253q3.7,2.347,7.613,4.334c2.873,1.458,5.765,2.9,9.01,3.223a2.014,2.014,0,0,0,2-2,2.045,2.045,0,0,0-2-2c-2.738-.272-5.371-1.83-7.77-3.077q-3.695-1.92-7.2-4.169A90.276,90.276,0,0,1,311.74,41.378c-1.876-1.76-4.711,1.063-2.828,2.828Z"/><path class="f" d="M52.6,86.748c.358-.885.658-1.8.978-2.7.188-.526.374-1.051.568-1.575.069-.188.143-.374.211-.563.175-.478-.191.349.017-.033l-2.259.919c4.77,1.507,9.409,3.432,14.086,5.2,4.076,1.54,8.363,3.453,12.713,4.053l-1.4-2.46c-1.563,4.27-3.42,8.451-4.794,12.788-.779,2.459,3.082,3.512,3.857,1.063,1.374-4.337,3.231-8.518,4.794-12.787a2,2,0,0,0-1.4-2.461c-4.35-.6-8.636-2.514-12.713-4.053-4.677-1.766-9.316-3.691-14.086-5.2a2.02,2.02,0,0,0-2.258.919,55.9,55.9,0,0,0-2.177,5.822,2.012,2.012,0,0,0,1.4,2.46,2.049,2.049,0,0,0,2.46-1.4Z"/><path class="f" d="M80.956,91.02A51.222,51.222,0,0,1,85,87.129a2,2,0,0,0-1.414-3.414,2.226,2.226,0,0,0-1.414.586,51.03,51.03,0,0,0-4.044,3.89,2.09,2.09,0,0,0-.586,1.414,2.037,2.037,0,0,0,.586,1.415,2,2,0,0,0,2.828,0Z"/><path class="f" d="M109.49,123.573a26.933,26.933,0,0,0,7.76-7.244c1.167-1.794,1.887-3.837,3.144-5.578,1.533-2.125,3.234-3.056,5.831-3.993,2.561-.924,6.07-2.01,8.592-1.544s3.595-3.39,1.063-3.857a17.934,17.934,0,0,0-7.583.584,28.621,28.621,0,0,0-7.289,2.809c-3.652,2.115-4.939,5.906-7.035,9.281a21.788,21.788,0,0,1-6.5,6.088c-2.116,1.439-.118,4.907,2.018,3.454Z"/></svg>