<?xml version="1.0" encoding="utf-8"?>
<!-- Uploaded to: SVG Repo, www.svgrepo.com, Generator: SVG Repo Mixer Tools -->
<svg width="800px" height="800px" viewBox="0 -16.28 394.517 394.517" xmlns="http://www.w3.org/2000/svg"><defs><style>.a{fill:#ffffff;}.b{fill:#211715;}.c{fill:#bdbdbd;}.d{fill:#7a7473;}.e{fill:#6dbf6b;}</style></defs><path class="a" d="M336.64,262.318a18.938,18.938,0,0,0-7.528,2.834c-3.5,2.557-5.049,6.871-7.118,10.748a112.122,112.122,0,0,1-28.243-24.1c1.75-1.158,4.435-2.935,4.838-3.205,2.7-1.809,6.551-6.773,6.913-10.007s-.143-6.537.423-9.741c.936-5.289,4.624-9.607,8.171-13.64,3.644-4.144,7.326-8.322,11.774-11.588,2.282-1.674,4.92-3.141,7.749-3.064s5.753,2.229,5.77,5.059c.013,2.144-1.525,3.942-2.974,5.522l-9.04,9.854q4.591.32,9.189.3c2.909-.012,14.465-4.228,17.909-5.533,4.047-1.533,7.391-3.158,10.652-4.5,3.868-1.6,6.087-2.958,10.183-3.9,3.416-.784,5.426-.3,7.486,1.04a4.443,4.443,0,0,1,2.264,3.5c2.741-.414,4.966,2.164,5.582,4.192.834,2.747,1.035,5.306.02,6.843,2.631,3.2.987,9.079.546,10.163a12.687,12.687,0,0,1-3.607,4.441A104.951,104.951,0,0,1,338.752,261.9C338.052,262.037,337.346,262.173,336.64,262.318Z"/><path class="b" d="M331.083,220.493c2.524-2.752,5.107-5.461,7.573-8.265,2.484-2.825,4.337-6.591,2.084-10.152a9.052,9.052,0,0,0-9.433-3.709c-3.931.716-7.347,3.505-10.254,6.085A96.111,96.111,0,0,0,312.842,213a53.221,53.221,0,0,0-6.952,9.1,22.538,22.538,0,0,0-2.655,11.369,20.87,20.87,0,0,1-.234,5.411,12.2,12.2,0,0,1-1.837,3.584c-2.57,3.762-6.365,5.765-10.145,8.266-2.565,1.7-.163,5.855,2.423,4.144,2.77-1.832,5.862-3.5,8.309-5.768a22.154,22.154,0,0,0,5.175-7.084c1.472-3.331,1-6.867,1.131-10.412.258-6.984,5.419-12.144,9.813-17.059a74.634,74.634,0,0,1,7.591-7.582c2.224-1.864,5.4-4.463,8.537-3.989a3.714,3.714,0,0,1,2.845,1.941c.526,1.3-.5,2.648-1.312,3.6-2.5,2.949-5.23,5.727-7.842,8.575-2.085,2.273,1.3,5.676,3.394,3.394Z"/><path class="b" d="M325.5,223.255c2.88.231,5.766.376,8.656.418a21.143,21.143,0,0,0,4.86-.334,82.332,82.332,0,0,0,9.608-2.926c7.737-2.681,15.107-6.132,22.663-9.262,2.28-.945,4.964-1.949,7.472-1.764,1.237.092,3.805,1.02,3.9,2.5a2.423,2.423,0,0,0,2.4,2.4,3.167,3.167,0,0,1,3.184,2.176c.565,1.362,1.188,3.833.345,5.248a2.348,2.348,0,0,0,0,2.422c1.466,1.9,1.274,4.468.815,6.541a6.478,6.478,0,0,1-.937,2.464,18.561,18.561,0,0,1-3.513,3.526,102.844,102.844,0,0,1-37.033,20.44,108.481,108.481,0,0,1-10.613,2.636c-3.5.694-7.04,1.5-9.92,3.73-5.417,4.2-6.1,11.748-11.147,16.167-2.327,2.04,1.079,5.424,3.394,3.394a24.01,24.01,0,0,0,5.307-7.629c1.291-2.59,2.488-5.4,4.583-7.461,2.455-2.412,6.021-2.97,9.261-3.612a106.684,106.684,0,0,0,10.814-2.721,107.927,107.927,0,0,0,39.066-21.827c2.621-2.294,4.751-4.718,5.445-8.2.646-3.243.746-7.114-1.377-9.868v2.422c1.714-2.878,1.1-7.042-.278-9.942-1.311-2.761-4.221-5.038-7.4-4.7l2.4,2.4c-.327-5.26-6.161-7.779-10.806-7.194-5.129.646-9.875,3.222-14.563,5.254a171.444,171.444,0,0,1-22.24,8.231c-.765.212-1.534.414-2.311.573-.233.047-1.106.149-.429.094-.424.034-.84.039-1.267.038-3.452,0-6.9-.155-10.341-.431a2.42,2.42,0,0,0-2.4,2.4,2.449,2.449,0,0,0,2.4,2.4Z"/><path class="b" d="M346.412,233.22c8.135-3.171,15.957-7,23.876-10.656a2.419,2.419,0,0,0,.861-3.284,2.455,2.455,0,0,0-3.283-.861c-7.542,3.484-14.984,7.153-22.73,10.172a2.471,2.471,0,0,0-1.676,2.952,2.418,2.418,0,0,0,2.952,1.677Z"/><path class="b" d="M354.835,241.575c8.769-3.695,17.491-7.39,25.77-12.112,2.683-1.531.268-5.679-2.422-4.145a227.345,227.345,0,0,1-24.624,11.628,2.483,2.483,0,0,0-1.677,2.953,2.415,2.415,0,0,0,2.953,1.676Z"/><path class="b" d="M323.613,244.886c.453-.128.908-.242,1.37-.334a5.95,5.95,0,0,1,.793-.137c-.43.024-.054.008.161-.013a16.869,16.869,0,0,1,2.816-.04c.2.014.4.038.6.053q.42.05-.038-.012c.133.019.266.04.4.062q.7.115,1.379.289t1.35.405c.19.066.377.14.567.208q.381.155-.015-.012c.123.054.246.109.368.165a2.459,2.459,0,0,0,3.284-.861,2.43,2.43,0,0,0-.861-3.284,19.483,19.483,0,0,0-13.45-1.117,2.4,2.4,0,0,0,1.276,4.628Z"/><path class="b" d="M341.077,228.464l10.85,17.365a2.4,2.4,0,1,0,4.144-2.423l-10.85-17.364a2.4,2.4,0,1,0-4.144,2.422Z"/><path class="c" d="M5.011,338.717c3.791-32.309,8.522-70.056,17.971-95.343A66.055,66.055,0,0,1,28,232.114c4.5-7.43,11.32-12.22,18.44-15.76,8.376-4.158,30.588-16.638,43.61-25.139,2.94-3.273,5.457-5.536,6.686-5.6,2.081,7,5.753,22.949,11.3,38.843,8.936,25.6,21.183,54.178,27.775,68.411l.673,1.62c7.77-18.691,18.1-47.788,25.237-71.75a336.142,336.142,0,0,0,8.615-37.122c1.236.142,3.66,2.321,6.491,5.46,10.883,7.37,32.235,17.887,43.662,24.655,7.47,4.42,14.45,10.1,18.95,17.53a27.88,27.88,0,0,1,2.37,3.97c.66.48,5.99,15.16,7.08,17.96,1.76,4.54,2.92,8.14,5.37,13.9,1.581,3.959,3.709,8.257,7.035,15.415,9.792-11.56,18.848-22.011,28.99-34.373a1.625,1.625,0,0,1,.863-.684c.541-.1,1,.379,1.343.807A111.923,111.923,0,0,0,324.6,277.415c-17.757,23.814-34.07,49.966-56.094,69.92-4.693,4.252-9.973,8.621-16.294,9.013-8.035.5-14.891-5.538-20.179-11.608-10-11.474-15.235-18.188-21.2-32.533q-.053,4.689-.062,9.6c-.01.36-.01.72-.01,1.08q0,3.075.01,6.24c.01,8.26.08,17.02.1,26.41,0,1.33.01,2.67,0,4.03,0,0-202.466,0-208.33,0C3.346,353.031,4.154,346.013,5.011,338.717Z"/><path class="c" d="M210.886,355.534c0-14.259-.133-23.925-.121-33.744"/><path class="a" d="M170.105,190.457c-.808-.363-3.826-1.544-4.179-1.675-5.421-1.959-5.209-5.452-5.9-9.348a77.252,77.252,0,0,1-1.09-9.4c14.869-6.067,26.878-26.138,28.955-31.777.311-.942.943-2.717,1.506-4.823l1.174-.182a14.741,14.741,0,0,0,6.859-3.092,22.241,22.241,0,0,0,5.753-7.55,35.005,35.005,0,0,0,3.569-18.554,11.68,11.68,0,0,0-1.223-4.7,8.261,8.261,0,0,0-5.94-3.949,8.751,8.751,0,0,0-7,2.048s2-48.03-57.764-48.03c-50,0-59.036,33.4-59.627,44.549a32.33,32.33,0,0,0-.028,3.481,8.751,8.751,0,0,0-7-2.048,8.261,8.261,0,0,0-5.94,3.949,11.68,11.68,0,0,0-1.223,4.7,35.005,35.005,0,0,0,3.569,18.554,22.254,22.254,0,0,0,5.753,7.55,14.741,14.741,0,0,0,6.859,3.092s.845.13,2.235.341A59.524,59.524,0,0,0,90.77,155.735c5.282,6.322,11.2,11.122,17.651,14.047a75.181,75.181,0,0,1-1.1,9.652c-.686,3.9-.474,7.389-5.895,9.348-.354.131-2.605,1.07-3.271,1.352,0,0-1.3,23.279,33.815,23.279S170.105,190.457,170.105,190.457Z"/><path class="d" d="M117.884,3.062C104.8,4.554,91.341,9.262,80.43,20.243L85.652,24.7c-8.9,5.5-15.891,16.155-19.1,25.587-3.779,11.1-4.907,26.889-.421,45.547l.033.137a8.2,8.2,0,0,1,2.011-.568,8.751,8.751,0,0,1,7,2.048l7.5-4.468.617-.368C99.156,77.771,108,71.625,122.219,60.455c.086.99,3.257,8.915,4,9.217.914.372,10.079-5.294,17.538-9.9L156.344,61.3c5.783,1.265,11.21,4.407,16.1,8.611,8.662,7.454,15.628,18.247,19.875,27.849a8.566,8.566,0,0,1,7.277-2.356,8.236,8.236,0,0,1,1.525.379c4.35-11.175,4.987-27.364-.506-42.723-3.862-10.8-13.071-22.091-20.332-25.268l-8.571-6.109C163.3,10.159,149.275,3.094,131.327,2.545A93.614,93.614,0,0,0,117.884,3.062Z"/><path class="b" d="M194.29,99.149a6.26,6.26,0,0,1,8.793.814c1.144,1.509,1.276,3.6,1.362,5.416a31.6,31.6,0,0,1-.349,6.648c-1.3,7.825-5.436,17.417-14.159,18.907a2.419,2.419,0,0,0-1.676,2.952,2.455,2.455,0,0,0,2.952,1.676c8.8-1.5,14.009-9.8,16.442-17.716a36.824,36.824,0,0,0,1.566-12.91c-.252-4.221-1.441-8.154-5.25-10.461a11.238,11.238,0,0,0-13.076,1.28,2.421,2.421,0,0,0,0,3.394,2.45,2.45,0,0,0,3.395,0Z"/><path class="b" d="M188.085,126.734a30.114,30.114,0,0,1-1.477,7.732c-.261.859-.544,1.71-.83,2.561-.091.271-.187.539-.28.809-.028.079-.065.155-.093.234-.159.438.216-.482.027-.065a59.951,59.951,0,0,1-3.908,7.144,69.8,69.8,0,0,1-15.632,18,29.771,29.771,0,0,1-11.562,5.84c-3.01.689-1.736,5.318,1.276,4.628,8.673-1.988,15.937-8.232,21.667-14.763a75.392,75.392,0,0,0,12.119-18.011,37.917,37.917,0,0,0,3.493-14.107c.1-3.089-4.7-3.086-4.8,0Z"/><path class="b" d="M76.87,95.755a11.211,11.211,0,0,0-11.508-2.037c-4.138,1.689-6.147,5.234-6.667,9.528a35.811,35.811,0,0,0,6.138,24.465c2.853,3.935,6.838,7.018,11.719,7.851a2.47,2.47,0,0,0,2.952-1.676,2.419,2.419,0,0,0-1.676-2.952c-8.723-1.49-12.856-11.082-14.159-18.907a31.489,31.489,0,0,1-.358-6.427c.075-1.836.18-3.931,1.272-5.489a6.233,6.233,0,0,1,8.893-.962,2.462,2.462,0,0,0,3.394,0,2.421,2.421,0,0,0,0-3.394Z"/><path class="b" d="M75.228,125.832A70.148,70.148,0,0,0,84.2,150.677c5.082,8.264,12.425,15.728,21.074,20.238a40.6,40.6,0,0,0,14.693,4.405,2.416,2.416,0,0,0,2.4-2.4,2.454,2.454,0,0,0-2.4-2.4C102.3,168.7,88.555,152.887,83.007,136.976a78.238,78.238,0,0,1-3.151-12.42A2.419,2.419,0,0,0,76.9,122.88a2.454,2.454,0,0,0-1.676,2.952Z"/><path class="b" d="M179.069,29.865a27.958,27.958,0,0,1,8.9,7.008,54.355,54.355,0,0,1,7.974,11.511c4.644,8.919,6.483,19.458,6.179,29.451a54.343,54.343,0,0,1-2.551,15.158c-.956,2.945,3.677,4.206,4.629,1.276,3.225-9.934,3.43-20.761,1.606-30.986A59.724,59.724,0,0,0,192.656,34.95c-3.07-3.635-6.768-7.257-11.164-9.23a2.475,2.475,0,0,0-3.284.861,2.42,2.42,0,0,0,.861,3.284Z"/><path class="b" d="M89.9,19.985C79.44,23.9,71.678,33.346,66.921,43.159c-4.651,9.591-6.3,20.315-6.092,30.91a105.752,105.752,0,0,0,2.985,22.4c.716,3,5.345,1.732,4.629-1.276-4.859-20.395-4.5-43.765,9.621-60.567,3.541-4.212,7.89-8.063,13.109-10.016a2.466,2.466,0,0,0,1.676-2.952A2.419,2.419,0,0,0,89.9,19.985Z"/><path class="b" d="M173.781,20.472C165.8,9.635,153.66,3.107,140.474,1.018c-13.412-2.125-28.13-.98-40.823,3.965A60.55,60.55,0,0,0,78.733,18.546c-2.188,2.186,1.2,5.581,3.394,3.394,9.478-9.469,22.021-14.823,35.236-16.416,12.542-1.513,26.034-.8,37.467,5.017A41.853,41.853,0,0,1,169.636,22.9a2.473,2.473,0,0,0,3.284.861,2.418,2.418,0,0,0,.861-3.284Z"/><path class="b" d="M146.322,55.366c-5.007,3.073-9.971,6.219-15.048,9.177-1.014.59-2.032,1.174-3.066,1.729-.405.218-.813.432-1.225.635-.161.079-.322.155-.483.231-.294.14-.489.168-.042.026a1.524,1.524,0,0,0-.379.134c-.146.18-.418-.159.033.024a8.108,8.108,0,0,1,1.679.556c.127.1.3.492.042.018-.436-.805-.842-1.617-1.215-2.455-.439-.987-.842-1.975-1.29-3.164-.174-.464-.346-.928-.5-1.4-.1-.294-.347-1.5-.208-.424a2.44,2.44,0,0,0-4.1-1.7c-10,7.848-20.177,15.447-29.742,23.827q-4.981,4.365-9.8,8.91C78.721,93.613,82.12,97,84.372,94.889c9.787-9.18,20.087-17.663,30.7-25.863q4.433-3.425,8.846-6.874l-4.1-1.7A25.042,25.042,0,0,0,122,66.78c.762,1.794,1.681,4.923,3.934,5.261,1.773.266,3.744-1.1,5.224-1.914,2.7-1.483,5.336-3.088,7.965-4.693,3.214-1.961,6.409-3.954,9.618-5.923,2.628-1.613.22-5.766-2.423-4.145Z"/><path class="b" d="M155.706,63.614c8.3,1.88,15.156,7.381,20.724,13.6a83.423,83.423,0,0,1,13.382,20.8,2.418,2.418,0,0,0,3.283.861,2.455,2.455,0,0,0,.861-3.283,87.156,87.156,0,0,0-14.417-22.083c-6.035-6.66-13.643-12.5-22.557-14.52-3.008-.682-4.292,3.945-1.276,4.628Z"/><path class="b" d="M99.369,192.207c-.688.291-.132.055.026-.01l.717-.3q.626-.261,1.253-.519a28.521,28.521,0,0,0,2.937-1.261,9.312,9.312,0,0,0,4.281-4.925,26.556,26.556,0,0,0,1.055-5.12,88.043,88.043,0,0,0,1.146-9.562,2.4,2.4,0,0,0-4.8,0,76.126,76.126,0,0,1-.974,8.286,36.572,36.572,0,0,1-.916,4.739c-.065.209-.152.4-.014.088-.082.186-.173.369-.271.546s-.213.351-.326.525c-.234.363.1-.091-.085.1a5.67,5.67,0,0,1-2.027,1.438c-1.437.67-2.96,1.211-4.424,1.831a2.414,2.414,0,0,0-.861,3.284,2.464,2.464,0,0,0,3.283.861Z"/><path class="b" d="M156.611,171.206c.23,3.2.713,6.356,1.214,9.523a18.188,18.188,0,0,0,1.477,5.676,10.1,10.1,0,0,0,5.54,4.521c.684.27,1.373.528,2.057.8q.669.264,1.337.533l.554.227c.5.2-.466-.207.1.045a2.476,2.476,0,0,0,3.283-.861,2.417,2.417,0,0,0-.861-3.284c-1.488-.659-3.011-1.25-4.531-1.833a9.271,9.271,0,0,1-2.159-1.108c.317.23-.181-.157-.24-.212-.161-.149-.305-.311-.457-.468-.371-.383.109.241-.128-.174-.116-.2-.237-.406-.354-.608-.047-.088-.09-.177-.131-.268q.144.358.05.115c-.069-.187-.135-.375-.193-.566-.119-.388-.212-.783-.293-1.181-.17-.834-.278-1.679-.41-2.52-.436-2.784-.857-5.542-1.059-8.356a2.459,2.459,0,0,0-2.4-2.4,2.419,2.419,0,0,0-2.4,2.4Z"/><path class="a" d="M139.579,192.6l-.19.087c-.475.215-1,.478-1.157.976a1.2,1.2,0,0,0,.017.686c-2.932.007-6.045.012-8.7.016a1.21,1.21,0,0,0,.021-.7c-.153-.5-.682-.761-1.157-.976a79.45,79.45,0,0,1-22.927-15.979,39.461,39.461,0,0,0-8.138,11.081c2.166,7.783,5.656,22.251,10.69,36.674,8.936,25.6,21.183,54.178,27.775,68.411l.712,1.539c7.764-18.7,18.07-47.744,25.2-71.669a337.287,337.287,0,0,0,8.365-35.656,38.885,38.885,0,0,0-7.772-10.38A79.506,79.506,0,0,1,139.579,192.6Z"/><path class="e" d="M138.294,290.084c3.54-8.8,7.487-19.358,11.362-30.384-2.892-19.557-6.917-45.9-6.9-47.06a18.535,18.535,0,0,1,1.2-5.45c.457-1.4.808-2.663,1.116-3.885-3.252-3.947-6.206-7.586-6.575-8.35a4.7,4.7,0,0,1-.246-.607c-2.936,0-6.047.009-8.7.018l-4.773,6.012c.027.123.044.246.071.369.466,2.364.914,4.729,1.468,7.093.1.457.219.923.334,1.389a12.241,12.241,0,0,1,.5,3.068c-.009.764-3.27,27.415-5.7,47.324,5.5,13.474,10.776,25.49,14.371,33.251l.826,1.275Q137.45,292.186,138.294,290.084Z"/><path class="b" d="M175.611,193.146c7.706,5.2,16.011,9.531,24.186,13.935,8.273,4.458,16.937,8.612,24.63,14.047A47.77,47.77,0,0,1,235.57,231.77c.822,1.13,1.54,2.322,2.3,3.494.318.489.653.968.963,1.463.245.391.9,2.051,1.282,2.2-.05-.02-.336-.639-.213-.26a2.949,2.949,0,0,0,.2.378c.1.2.186.4.278.6.055.122.107.246.161.368s-.163-.4.04.1c2.414,5.873,4.57,11.86,6.8,17.806a208.271,208.271,0,0,0,11.561,26.541c1.473,2.716,5.619.3,4.145-2.423-6.763-12.465-11.178-25.934-16.261-39.129-.581-1.507-1.168-3.012-1.794-4.5a7.935,7.935,0,0,0-1.516-2.875l.617,1.059a37.561,37.561,0,0,0-4.9-7.9,48.805,48.805,0,0,0-5.85-6.475,75.1,75.1,0,0,0-13.686-9.73c-9.092-5.224-18.445-9.982-27.607-15.081-4.767-2.654-9.53-5.355-14.055-8.409-2.567-1.732-4.972,2.424-2.422,4.145Z"/><path class="b" d="M213.272,359.564c.085-14.679-.186-29.357-.069-44.036.022-2.87-.043-5.768.128-8.634.026-.433.066-.865.111-1.3.029-.268.061-.536.093-.8a2.056,2.056,0,0,1,.05-.382c.454-3.044,1.023-6.067,1.638-9.083,3.489-17.08,7.9-33.971,12.02-50.906,1.548-6.36,3.307-12.751,4.353-19.22a2.473,2.473,0,0,0-1.676-2.952,2.418,2.418,0,0,0-2.952,1.676c-.9,5.561-2.377,11.056-3.7,16.526-2.081,8.6-4.219,17.194-6.3,25.8-2.055,8.485-4.092,16.979-5.9,25.522-1.265,5.991-2.515,11.987-2.6,18.125-.239,16.557.1,33.112.007,49.668-.018,3.089,4.782,3.093,4.8,0Z"/><path class="b" d="M59.262,359.564c.008-10.082.129-20.162.194-30.243.03-4.575.046-9.15.02-13.725a93.775,93.775,0,0,0-.3-10.578c-1.029-8.595-3.14-17.094-5.1-25.513-2.3-9.882-4.729-19.733-7.149-29.586-1.3-5.308-2.611-10.616-3.861-15.937-.783-3.333-1.606-6.676-2.162-10.056a2.417,2.417,0,0,0-2.952-1.676,2.456,2.456,0,0,0-1.676,2.952c1.217,7.4,3.257,14.7,5.038,21.979,2.418,9.88,4.867,19.754,7.208,29.653,2.077,8.785,4.237,17.612,5.619,26.54a70.016,70.016,0,0,1,.511,9.4c.043,4.451.041,8.9.02,13.355-.052,11.144-.2,22.289-.212,33.434,0,3.088,4.8,3.093,4.8,0Z"/><path class="b" d="M88.861,189.131l-.02.01a2.378,2.378,0,0,0-1.189,2.073v.01l2.4-2.4a2.392,2.392,0,0,0-1.231.327c-1.678.982.547-.223-.691.453-.671.366-1.3.839-1.95,1.249q-2.283,1.45-4.589,2.863-4.645,2.851-9.348,5.606-9.31,5.481-18.81,10.642c-4.744,2.581-9.741,4.815-14.278,7.751A41.647,41.647,0,0,0,25.93,230.9c-3.45,5.7-5.618,12.346-7.6,18.676-1.971,6.291-3.575,12.7-5,19.131C10.2,282.9,7.943,297.274,5.946,311.663,3.734,327.6,1.918,343.588.012,359.564a2.413,2.413,0,0,0,2.4,2.4,2.458,2.458,0,0,0,2.4-2.4c3.341-28.006,6.3-56.138,11.926-83.8,2.559-12.583,5.589-25.3,10.658-37.144a36.023,36.023,0,0,1,11.156-14.637c4.188-3.232,8.978-5.427,13.624-7.893,6.724-3.57,13.348-7.326,19.939-11.134q5.076-2.934,10.082-5.984,2.566-1.558,5.112-3.154a25.165,25.165,0,0,0,4.42-2.9l-1.7.7h.02a2.435,2.435,0,0,0,2.4-2.4v-.01l-1.189,2.072.02-.01c2.763-1.382.335-5.523-2.422-4.145Z"/><path class="b" d="M127.305,214.58c5.151,0,10.3-.114,15.453-.116a2.4,2.4,0,0,0,0-4.8c-5.151,0-10.3.114-15.453.116a2.4,2.4,0,0,0,0,4.8Z"/><path class="b" d="M123.994,208.478a13.857,13.857,0,0,1,.724,4.186c-.042.548-.119,1.1-.181,1.642-.249,2.176-.51,4.351-.77,6.526q-1.26,10.518-2.55,21.031-1.412,11.568-2.829,23.134-.562,4.6-1.123,9.192-.207,1.689-.411,3.379c-.166,1.361-.364,2.371.511,3.587,2.721,3.779,5.447,7.555,8.268,11.26s5.66,7.659,9.116,10.83a2.45,2.45,0,0,0,3.4,0c3.313-3.234,6-7.213,8.668-10.974q2.358-3.324,4.619-6.717.9-1.353,1.791-2.716c.615-.947,1.653-2.122,1.658-3.286a46.172,46.172,0,0,0-.857-6.423q-.684-4.848-1.4-9.691c-2.229-15.152-4.573-30.287-6.754-45.445q-.257-1.776-.5-3.554c-.1-.746.058.459-.01-.075-.026-.2-.053-.4-.078-.6-.033-.264-.074-.53-.094-.8-.175-2.35,1-4.7,1.635-6.92,1.059-3.67,1.714-7.436,2.888-11.075a2.422,2.422,0,0,0-2.315-3.038c-7.977,0-15.955.037-23.933.038a2.427,2.427,0,0,0-2.314,3.038c1.111,4.454,1.82,8.994,2.851,13.467.694,3.008,5.323,1.735,4.629-1.277-1.032-4.472-1.74-9.012-2.851-13.466l-2.315,3.038c7.978,0,15.956-.037,23.933-.038l-2.314-3.038c-.827,2.565-1.415,5.182-2.039,7.8-.657,2.761-1.713,5.428-2.308,8.2a12.974,12.974,0,0,0-.163,4.764c.58,4.385,1.242,8.76,1.891,13.135,1.915,12.916,3.878,25.825,5.773,38.744q.615,4.2,1.212,8.4.121.867.241,1.733c.033.237.065.474.1.711.09.656-.062-.472.02.149.1.739.194,1.477.279,2.216l.328-1.211c-2.47,3.907-5.067,7.738-7.74,11.507a71.426,71.426,0,0,1-7.919,10h3.4c-3.4-3.121-6.2-6.987-8.972-10.656-2.745-3.633-5.4-7.33-8.066-11.022l.328,1.211q1.694-14.081,3.439-28.156,2.01-16.44,3.991-32.884c.189-1.591.379-3.183.556-4.775a18.408,18.408,0,0,0-.8-6.368C127.912,204.2,123.282,205.469,123.994,208.478Z"/><path class="a" d="M115.12,212.532c-7.363-7.316-12.185-16.179-17.624-25.032a39.232,39.232,0,0,1,7.991-10.795,79.45,79.45,0,0,0,22.927,15.979c.475.215,1,.478,1.157.976a1.835,1.835,0,0,1-.265,1.3C128.62,196.377,118.94,207.828,115.12,212.532Z"/><path class="a" d="M152.683,212.532c7.363-7.316,12.185-16.179,17.624-25.032a39.248,39.248,0,0,0-7.99-10.795,79.468,79.468,0,0,1-22.928,15.979c-.475.215-1,.478-1.157.976a1.835,1.835,0,0,0,.265,1.3C139.183,196.377,148.863,207.828,152.683,212.532Z"/><path class="b" d="M116.817,210.835c-7.134-7.145-12.012-16.009-17.248-24.546v2.423a37.936,37.936,0,0,1,7.615-10.31h-3.395a81.308,81.308,0,0,0,11.77,9.745q3.039,2.082,6.258,3.883,1.562.871,3.162,1.669.738.366,1.484.716.441.207.884.409a2.459,2.459,0,0,1,.284.147q.35.2-.132-.1l-.328-1.211c.025.317-.31.674-.521.965-.18.247-.366.49-.551.734.334-.439-.355.453-.459.584-1.3,1.641-2.621,3.258-3.949,4.873-2.75,3.345-5.536,6.659-8.268,10.019a2.471,2.471,0,0,0,0,3.394,2.417,2.417,0,0,0,3.394,0c3.977-4.891,8.082-9.679,12-14.618,1.56-1.966,4.325-4.728,2.693-7.434a5.448,5.448,0,0,0-2.624-1.906q-1.5-.7-2.972-1.478-3.231-1.7-6.294-3.7a75.515,75.515,0,0,1-12.436-10.09,2.447,2.447,0,0,0-3.395,0,40.424,40.424,0,0,0-7.355,9.434,8.325,8.325,0,0,0-1.3,2.74c-.157,1.166.639,2.106,1.212,3.048,1.032,1.7,2.053,3.4,3.086,5.1,4.08,6.708,8.414,13.319,13.986,18.9C115.608,216.418,119,213.025,116.817,210.835Z"/><path class="b" d="M154.38,214.229c5.572-5.581,9.906-12.192,13.986-18.9,1.033-1.7,2.054-3.4,3.086-5.1a5.706,5.706,0,0,0,1.255-2.729c0-1.054-.822-2.164-1.337-3.059a40.481,40.481,0,0,0-7.356-9.434,2.443,2.443,0,0,0-3.394,0,74.708,74.708,0,0,1-10.98,9.12q-2.953,2.01-6.077,3.758c-1.929,1.077-4.08,1.867-5.954,3.02-3.605,2.217-.966,5.715.818,8,1.923,2.46,3.92,4.863,5.908,7.27,2.219,2.685,4.454,5.355,6.651,8.057a2.415,2.415,0,0,0,3.394,0,2.455,2.455,0,0,0,0-3.394c-2.731-3.36-5.518-6.674-8.268-10.019-1.3-1.586-2.6-3.173-3.878-4.783q-.207-.262-.413-.526c-.04-.051-.466-.607-.117-.148-.17-.224-.341-.448-.507-.675-.221-.3-.591-.692-.565-1.024l-.328,1.211c-.112.23-.429.2.008.021.285-.118.563-.261.843-.391q.745-.346,1.483-.71,1.6-.79,3.162-1.657,3.315-1.838,6.444-3.987a81.308,81.308,0,0,0,11.77-9.745H160.62a37.938,37.938,0,0,1,7.614,10.31v-2.423c-5.236,8.537-10.114,17.4-17.248,24.546C148.8,213.024,152.194,216.419,154.38,214.229Z"/><path class="c" d="M135.814,292.871c-6.592-14.233-18.839-42.807-27.775-68.411-5.549-15.9-9.221-31.85-11.305-38.847-3.818.184-20.16,21.766-22.815,28.66-.175.453,7.816,7.664,11.433,10.908-1.935,1.737-8.58,9.531-8.7,10.318-.092.616,42.68,53.013,54.924,68.587Z"/><path class="c" d="M128.367,318.142a68.788,68.788,0,0,1,2.521-11.116c7.587-15.213,21.777-53.881,30.836-84.285a335.972,335.972,0,0,0,8.616-37.131c3.943.445,20.106,21.811,22.745,28.663.174.453-7.817,7.664-11.434,10.908,1.933,1.733,8.581,9.531,8.7,10.318.093.616-31.747,50.142-48.663,75.627Z"/><path class="b" d="M133.274,302.389c-9.2-11.7-18.627-23.238-27.983-34.82q-7.764-9.612-15.513-19.235-2.993-3.721-5.97-7.454-1.124-1.411-2.242-2.827-.462-.587-.923-1.175l-.373-.477c-.134-.173-.717-.934-.158-.2-.378-.5-.746-1-1.125-1.495-.058-.076-.153-.307-.233-.348-.007,0-.012-.036-.019-.036a2.344,2.344,0,0,1,.243,1.772q-.322.711-.151.381c.14-.082.328-.509.418-.637s.708-.94.443-.6c.354-.455.717-.9,1.082-1.348q1.075-1.312,2.188-2.594a51.193,51.193,0,0,1,4.091-4.418,2.418,2.418,0,0,0,0-3.394c-3.13-2.809-6.272-5.612-9.29-8.542-.5-.488-1.007-.977-1.484-1.492-.15-.162-.286-.355-.447-.506.444.415.3.425.19.223q-.036,2.409.292,1.55c.068-.167.035-.088-.1.234a13.869,13.869,0,0,0,.8-1.629c.36-.681.742-1.35,1.135-2.012a116.329,116.329,0,0,1,13.828-18.641,42.505,42.505,0,0,1,3.652-3.663c.158-.137.985-.77.4-.347.206-.149.409-.3.625-.435.2-.123.407-.216.6-.335.251-.151-.62.244-.262.119.233-.081.645-.065-.251.009l-2.314-1.762c1.8,6.072,3.276,12.238,4.971,18.339q3.521,12.674,7.939,25.05c5.509,15.347,11.6,30.486,18.012,45.479,2.716,6.356,5.493,12.687,8.4,18.96a2.421,2.421,0,0,0,3.284.861,2.456,2.456,0,0,0,.861-3.284c-5.684-12.284-10.959-24.764-16.006-37.322-6.339-15.773-12.364-31.694-17.022-48.053-2.016-7.079-3.717-14.249-5.806-21.306a2.431,2.431,0,0,0-2.314-1.762c-2.813.233-5.108,2.827-6.938,4.74a112.661,112.661,0,0,0-8.33,10.016,121.93,121.93,0,0,0-7.178,10.42,37.53,37.53,0,0,0-2.163,3.994c-.472,1.047-.9,2.048-.276,3.158A7.575,7.575,0,0,0,73,216.967c3.319,3.518,7.06,6.683,10.658,9.911v-3.394a69.033,69.033,0,0,0-7.872,9.019c-.942,1.227-2.071,2.619-1.2,4.229a6.222,6.222,0,0,0,.485.71c2.782,3.781,5.793,7.406,8.728,11.067,10.592,13.214,21.269,26.36,31.9,39.546,4.748,5.893,9.507,11.779,14.185,17.728a2.413,2.413,0,0,0,3.394,0,2.46,2.46,0,0,0,0-3.394Z"/><path class="b" d="M133.58,351.435c-.575-10.129-2.252-20.17-2.8-30.3a21.045,21.045,0,0,1,.326-5.173,36.949,36.949,0,0,1,2.51-9.069c1.924-4,3.662-8.08,5.358-12.176a735.325,735.325,0,0,0,24.952-70.971,324.09,324.09,0,0,0,8.725-37.49l-2.952,1.676c.114.017.686.163.207.018-.459-.139.114.063.246.146.205.128.4.263.6.4.484.319-.247-.239.316.249a42.052,42.052,0,0,1,3.183,3.08,108.364,108.364,0,0,1,7.229,8.7c2.405,3.184,4.72,6.45,6.81,9.85.767,1.247,1.511,2.515,2.151,3.832a4.261,4.261,0,0,0,.343.742l-.125-.3q.2.584.187-.675c.045-.276.243-1.126.061-.693.258-.615.185-.237-.078.054-.246.271-.505.532-.763.791-3.235,3.256-6.7,6.294-10.119,9.358a2.419,2.419,0,0,0,0,3.394,66.669,66.669,0,0,1,6.609,7.416c.253.312.505.626.752.943-.276-.354.28.374.346.465.14.194.262.408.409.594.031.039.07.157.107.178q.171.33-.152-.381l.01-1.217c-.008.041.393-.729.126-.326-.1.153-.181.326-.273.486-2.059,3.573-4.339,7.03-6.547,10.512q-13.208,20.824-26.7,41.466-7.47,11.478-15.026,22.9c-1.713,2.581,2.443,4.987,4.145,2.423q14.451-21.776,28.548-43.782,6.368-9.88,12.678-19.8c2.353-3.706,4.767-7.389,6.978-11.182a6.337,6.337,0,0,0,.695-1.408c.418-1.522-.773-2.807-1.626-3.911a68.4,68.4,0,0,0-7.684-8.775v3.394c3.308-2.968,6.648-5.919,9.807-9.046,1.126-1.115,2.688-2.419,2.244-4.2a17.264,17.264,0,0,0-1.96-4.009A118.932,118.932,0,0,0,178.4,189.239a39.871,39.871,0,0,0-3.864-3.837,8.066,8.066,0,0,0-3.557-2.1c-1.182-.172-2.71.276-2.952,1.676-4.187,24.218-11.489,47.623-19.537,70.8-4.047,11.655-8.289,23.252-12.923,34.687-1.69,4.171-3.394,8.233-5.3,12.335q-.526,1.133-1.074,2.256a26.9,26.9,0,0,0-1.638,5,38.149,38.149,0,0,0-1.628,8.938c-.082,4.76.683,9.6,1.179,14.324.634,6.029,1.335,12.063,1.679,18.117.174,3.071,4.975,3.091,4.8,0Z"/><path class="b" d="M142.2,328.206c0-.262.02-.521.039-.783.037-.493-.116.6-.014.12.028-.127.049-.256.079-.383.06-.255.144-.5.225-.748.151-.46-.265.522-.039.094.081-.153.156-.309.245-.458.068-.112.143-.218.214-.328.263-.4-.388.418-.049.074a5.046,5.046,0,0,0,.58-.559c-.254.378-.307.224-.037.05.08-.052.162-.1.244-.148a1.987,1.987,0,0,0,.391-.2q-.516.21-.152.068c.1-.036.2-.07.3-.1a2.932,2.932,0,0,1,.98-.223c-.6-.059-.09.019.088.008.194-.012.39-.021.584-.018s.37.024.555.035c.6.037-.509-.128.054.014.088.022,1.085.307,1.085.308-.035.05-.519-.252-.024,0,.129.067.256.139.379.217.254.16.259.345-.023-.047a1.625,1.625,0,0,0,.213.18c.2.177.361.445.568.6-.4-.3-.214-.288-.054-.042a5.5,5.5,0,0,1,.276.476c.112.215.114.507-.009-.069.028.13.1.267.145.395a7.136,7.136,0,0,1,.222.826,3.029,3.029,0,0,0,.076.429c-.2-.537-.04-.322-.019-.053a8.061,8.061,0,0,1,.026.958c0,.089-.012.179-.017.268-.013.288-.158.2.041-.254a5.06,5.06,0,0,0-.139.674,4.221,4.221,0,0,0-.222.678c-.063-.087.27-.584.045-.127q-.109.224-.237.437c-.065.108-.138.211-.206.317-.254.4.387-.432.063-.079-.179.195-.363.378-.552.563-.35.342.474-.309.058-.037-.117.076-.231.157-.352.23-.082.049-.165.1-.25.141-.588.311.3-.07-.107.063a8.981,8.981,0,0,1-.926.266c-.19.04-.583.239-.046.023a1.938,1.938,0,0,1-.55.042c-.214.01-.936.115-1.1-.026l.3.044q-.163-.024-.324-.057a5.755,5.755,0,0,1-.607-.158l-.143-.049q-.363-.138.164.078c-.091-.107-.375-.187-.5-.263a2.114,2.114,0,0,0-.343-.226q.458.364.17.127l-.1-.087c-.1-.088-.191-.18-.281-.276-.06-.063-.118-.127-.174-.193q-.235-.288.136.182c-.126-.261-.333-.5-.469-.758-.057-.11-.1-.235-.163-.341.369.614.09.213.014-.009a7.669,7.669,0,0,1-.228-.827c-.025-.117-.041-.237-.068-.353-.1-.41.053.683.009.061-.019-.257-.036-.511-.038-.769a2.4,2.4,0,0,0-4.8,0c.021,3.046,1.377,6.345,4.219,7.783,3.316,1.678,8.034,1.108,10.492-1.83a9.069,9.069,0,0,0,1.465-8.959,7.992,7.992,0,0,0-3.351-4.171,9.33,9.33,0,0,0-6.12-1,7.778,7.778,0,0,0-5.223,3.166,8.665,8.665,0,0,0-1.482,5.014,2.4,2.4,0,0,0,4.8,0Z"/><path class="b" d="M250.314,301.363c10.811-13.11,21.951-25.942,32.881-38.951q2.252-2.679,4.487-5.369,1.182-1.422,2.359-2.849c.585-.708,1.5-2.323,2.32-2.67l-1.211.328q-.931-.423-.354.1c.134.166.268.332.4.5q.473.579.954,1.152.823.982,1.671,1.944,1.766,2.006,3.624,3.924,3.792,3.912,7.951,7.444a116.077,116.077,0,0,0,17.99,12.57l-.861-3.284c-13.784,18.5-26.376,37.962-41.739,55.235-3.841,4.319-7.85,8.49-12.07,12.441-3.779,3.538-7.874,7.555-12.872,9.278-10.751,3.708-19.1-6.531-25.258-13.751a117.811,117.811,0,0,1-9.5-12.445,99.234,99.234,0,0,1-7.783-15.024,2.415,2.415,0,0,0-3.284-.861,2.465,2.465,0,0,0-.861,3.284,100.417,100.417,0,0,0,7.233,14.158,111.193,111.193,0,0,0,8.682,11.757c6.7,8.082,15.055,18.911,26.747,18.492,5.88-.21,10.908-3.4,15.306-7.045a145.4,145.4,0,0,0,12.659-12.09,302.062,302.062,0,0,0,23.064-28.109c8.059-10.881,15.736-22.039,23.826-32.9a2.419,2.419,0,0,0-.861-3.284,109.5,109.5,0,0,1-17.344-12.1q-4.059-3.472-7.775-7.321-1.781-1.845-3.475-3.77a47.789,47.789,0,0,0-3.5-4.09,3.462,3.462,0,0,0-5.134.374c-1.351,1.5-2.575,3.129-3.862,4.68q-3.446,4.152-6.926,8.273-7.041,8.344-14.142,16.639-8.435,9.915-16.74,19.938a2.469,2.469,0,0,0,0,3.394,2.419,2.419,0,0,0,3.394,0Z"/><path class="b" d="M123.8,144.227a22.9,22.9,0,0,0,11.03,2.543c3.9-.025,7.9-.768,11.025-3.206a2.415,2.415,0,0,0,0-3.395,2.463,2.463,0,0,0-3.4,0c.7-.54.04-.046-.138.068q-.341.218-.7.405c-.141.074-.924.42-.384.2q-.476.192-.964.35a17.6,17.6,0,0,1-5.808.776,18.357,18.357,0,0,1-5.545-.747c-.353-.105-.7-.231-1.045-.351-.114-.039-.224-.089-.337-.131.589.218.075.033-.037-.019-.433-.2-.858-.416-1.281-.639a2.451,2.451,0,0,0-3.283.861,2.426,2.426,0,0,0,.861,3.283Z"/><path class="b" d="M133.856,117.926a52.874,52.874,0,0,1,1.248,5.71l-.086-.638a3.407,3.407,0,0,1,.022.788l.086-.638a1.978,1.978,0,0,1-.087.355l.242-.574a1.481,1.481,0,0,1-.125.228l.375-.486a1.122,1.122,0,0,1-.187.184l.486-.375a3.482,3.482,0,0,1-.452.239l.573-.242a3.33,3.33,0,0,1-.762.223l.638-.086a3,3,0,0,1-.715,0l.638.086c-.27-.038-.535-.1-.805-.14a2.655,2.655,0,0,0-1.849.242,2.4,2.4,0,0,0-.861,3.284,2.3,2.3,0,0,0,1.434,1.1c.567.076,1.118.222,1.694.247a5.322,5.322,0,0,0,2.438-.571,3.4,3.4,0,0,0,1.92-2.257,5.89,5.89,0,0,0-.027-2.49c-.311-1.839-.736-3.663-1.209-5.467a2.4,2.4,0,0,0-4.629,1.276Z"/><path class="b" d="M103.157,101.9c-.954,3.1-.332,10.226,5.538,10.833,7.759-.047,8.172-8.664,5.56-12.716C112.116,96.7,105.828,95.316,103.157,101.9Z"/><path class="b" d="M165.289,101.9c.953,3.1.332,10.226-5.538,10.833-7.759-.047-8.172-8.665-5.561-12.717C156.329,96.7,162.617,95.316,165.289,101.9Z"/></svg>